?xml version="1.0" encoding="UTF-8"?>
<svg version="1.1" xmlns="http://www.w3.org/2000/svg" width="500" height="500">
<path d="M0 0 C0 0.66 0 1.32 0 2 C1.04607422 2.34224609 1.04607422 2.34224609 2.11328125 2.69140625 C5.60841473 4.2758037 8.30819813 6.45284732 11.1875 8.9375 C11.74977295 9.41823975 12.3120459 9.89897949 12.89135742 10.39428711 C18.3571453 15.15800462 23.53012351 20.2789617 28 26 C28 26.66 28 27.32 28 28 C28.66 28 29.32 28 30 28 C32.61029122 31.12529462 34.75950567 34.60397512 37 38 C37.63421875 38.93070313 38.2684375 39.86140625 38.921875 40.8203125 C57.934072 69.9469983 65.86555948 107.263773 59.74609375 141.6171875 C59.49988281 142.73351562 59.25367188 143.84984375 59 145 C58.84934082 145.68481445 58.69868164 146.36962891 58.54345703 147.07519531 C53.21512083 170.60995983 43.30955174 192.37009255 31.875 213.5 C31.38418945 214.40806396 30.89337891 215.31612793 30.38769531 216.25170898 C27.62450074 221.28255537 24.6632333 226.07204411 21.43261719 230.81420898 C19.57544514 233.64775727 17.97972958 236.59214938 16.36230469 239.56689453 C13.62236772 244.46048088 10.60297236 249.18649792 7.625 253.9375 C6.99078125 254.95779297 6.3565625 255.97808594 5.703125 257.02929688 C0.5493349 265.27010207 -4.92743611 273.23472086 -10.6875 281.0625 C-13.57927911 285.0184984 -16.41760846 289.00752848 -19.22998047 293.02001953 C-27.90806628 305.3945852 -36.90347275 317.50764055 -46.34790039 329.30932617 C-48.43573184 331.93278557 -50.39322316 334.56963758 -52.1875 337.3984375 C-52.785625 338.25695312 -53.38375 339.11546875 -54 340 C-54.66 340 -55.32 340 -56 340 C-56.3403125 340.7734375 -56.3403125 340.7734375 -56.6875 341.5625 C-59.81501351 347.37073937 -63.00493396 351.88256566 -69 355 C-73.33363974 356.2606952 -75.9387247 356.34290711 -79.875 354.25 C-83 352 -83 352 -84 349 C-84.66 349 -85.32 349 -86 349 C-87.59375 347.26953125 -87.59375 347.26953125 -89.5 344.8125 C-90.57121094 343.43964844 -90.57121094 343.43964844 -91.6640625 342.0390625 C-92.43492187 341.03617187 -93.20578125 340.03328125 -94 339 C-94.79148437 337.97648437 -95.58296875 336.95296875 -96.3984375 335.8984375 C-98.07775588 333.72373021 -99.75161035 331.54494894 -101.421875 329.36328125 C-103.13432465 327.12657255 -104.85306779 324.89496788 -106.578125 322.66796875 C-111.84287682 315.86582092 -116.97034727 308.97826059 -122 302 C-123.31238106 300.20824621 -124.62488246 298.41658055 -125.9375 296.625 C-138.99066719 278.64231303 -151.75020828 260.17146212 -163 241 C-163.52384277 240.11183594 -164.04768555 239.22367187 -164.58740234 238.30859375 C-187.91031859 198.6628007 -187.91031859 198.6628007 -196 178 C-196.37415039 177.06414062 -196.37415039 177.06414062 -196.75585938 176.109375 C-203.91758205 158.14317689 -208.3760494 140.30649979 -208.31567383 120.87451172 C-208.31252401 118.76606936 -208.33603675 116.65905061 -208.36132812 114.55078125 C-208.49346062 85.85256422 -198.07237312 56.42018463 -180.89453125 33.52734375 C-179.24296877 31.32412534 -177.67612971 29.08657513 -176.125 26.8125 C-175.073125 25.4203125 -175.073125 25.4203125 -174 24 C-173.34 24 -172.68 24 -172 24 C-171.61328125 23.12601563 -171.61328125 23.12601563 -171.21875 22.234375 C-169.90165983 19.8197097 -168.44911616 18.18259823 -166.5 16.25 C-165.58734375 15.32960938 -165.58734375 15.32960938 -164.65625 14.390625 C-163 13 -163 13 -161 13 C-161 12.34 -161 11.68 -161 11 C-159.14089987 9.36301821 -157.28727566 7.86180775 -155.3125 6.375 C-154.72742676 5.9313208 -154.14235352 5.4876416 -153.53955078 5.03051758 C-108.32292223 -28.73373235 -47.69249478 -28.4320642 0 0 Z M-83.0390625 1.015625 C-99.83674624 1.62329315 -115.45733349 8.04141121 -130 16 C-131.99590547 17.00814749 -133.99451913 18.01103768 -136 19 C-136 19.66 -136 20.32 -136 21 C-136.71542969 21.2475 -137.43085938 21.495 -138.16796875 21.75 C-141.31409706 23.13863595 -143.63810963 24.84463946 -146.3125 27 C-147.19550781 27.70125 -148.07851562 28.4025 -148.98828125 29.125 C-149.65214844 29.74375 -150.31601563 30.3625 -151 31 C-151 31.66 -151 32.32 -151 33 C-151.66 33 -152.32 33 -153 33 C-153 33.66 -153 34.32 -153 35 C-153.66 35 -154.32 35 -155 35 C-158.23690975 38.46764669 -161.08780371 42.25850278 -164 46 C-164.59296875 46.7321875 -165.1859375 47.464375 -165.796875 48.21875 C-175.39688607 60.8359074 -181.83206577 76.53888701 -185 92 C-185.17362061 92.74016357 -185.34724121 93.48032715 -185.52612305 94.24291992 C-186.45259308 99.63324765 -186.22575733 105.14016813 -186.24023438 110.59741211 C-186.24980305 112.76782639 -186.28079313 114.93723502 -186.3125 117.10742188 C-186.41800089 130.68531883 -184.64666042 143.58884686 -179.3125 156.1875 C-178.96509766 157.02845215 -178.61769531 157.8694043 -178.25976562 158.73583984 C-173.81859345 169.18059658 -167.9372882 178.25448705 -160.6640625 186.9765625 C-159 189 -159 189 -157 192 C-156.34 192 -155.68 192 -155 192 C-155 192.66 -155 193.32 -155 194 C-154.34 194 -153.68 194 -153 194 C-153 194.66 -153 195.32 -153 196 C-151.26608049 197.60634015 -149.461909 199.1375287 -147.625 200.625 C-146.12839844 201.85089844 -146.12839844 201.85089844 -144.6015625 203.1015625 C-142.26750115 205.19648969 -142.26750115 205.19648969 -140 205 C-140 205.66 -140 206.32 -140 207 C-129.01937869 215.94896451 -113.70937241 222.01959248 -100 225 C-99.21681396 225.1762793 -98.43362793 225.35255859 -97.62670898 225.53417969 C-89.74471498 227.14698173 -82.02944595 227.38634242 -74 227.375 C-73.31846863 227.37412384 -72.63693726 227.37324768 -71.93475342 227.37234497 C-50.03538601 227.27973842 -28.01704512 222.15695588 -10 209 C-10 208.34 -10 207.68 -10 207 C-8.8553125 206.566875 -8.8553125 206.566875 -7.6875 206.125 C-4.84970692 205.03730987 -4.84970692 205.03730987 -2 203 C-2 202.34 -2 201.68 -2 201 C-1.43796875 200.7628125 -0.8759375 200.525625 -0.296875 200.28125 C2.51894042 198.71052303 4.47955416 196.78528536 6.75 194.5 C7.54921875 193.7059375 8.3484375 192.911875 9.171875 192.09375 C11.21923609 190.21216538 11.21923609 190.21216538 11 188 C11.66 188 12.32 188 13 188 C14.3606009 186.51363242 14.3606009 186.51363242 15.625 184.625 C16.07101562 183.99851562 16.51703125 183.37203125 16.9765625 182.7265625 C18.16996969 181.04777357 18.16996969 181.04777357 18 179 C18.66 179 19.32 179 20 179 C25.91662456 168.99433047 31.35738232 159.07951175 35 148 C35.21027832 147.37593262 35.42055664 146.75186523 35.63720703 146.10888672 C45.08154866 116.62429524 38.89697729 85.5742971 25.45410156 58.70263672 C23.26753006 54.63860942 20.96814563 50.54949506 18 47 C17.34 47 16.68 47 16 47 C15.773125 46.484375 15.54625 45.96875 15.3125 45.4375 C11.59807766 38.53928709 6.9964072 33.90711277 1 29 C0.25878906 28.360625 -0.48242188 27.72125 -1.24609375 27.0625 C-25.12992489 6.98282587 -52.54675123 0.85885219 -83.0390625 1.015625 Z " fill="#44B8E7" transform="translate(308,82)"/>
<path d="M0 0 C0.82668686 -0.0049649 1.65337372 -0.00992981 2.50511169 -0.01504517 C5.23152509 -0.02961275 7.9578803 -0.03645964 10.68432617 -0.04199219 C12.58615622 -0.04774794 14.48798625 -0.05350561 16.38981628 -0.05926514 C20.37511464 -0.06975965 24.36039291 -0.0756125 28.34570312 -0.07910156 C33.43984651 -0.08458405 38.53372233 -0.10861345 43.62778187 -0.13707352 C47.55613469 -0.15574236 51.48442358 -0.16090775 55.412817 -0.16243744 C57.29020336 -0.16545473 59.16758883 -0.1734519 61.04493141 -0.18662262 C63.67729406 -0.2037727 66.30900963 -0.20178121 68.94140625 -0.1953125 C69.70895233 -0.20452728 70.47649841 -0.21374207 71.26730347 -0.22323608 C77.4327593 -0.17603111 82.86660724 1.06005461 87.90698242 4.84472656 C88.44581055 5.42351562 88.98463867 6.00230469 89.53979492 6.59863281 C90.0940918 7.17484375 90.64838867 7.75105469 91.21948242 8.34472656 C94.82442489 12.87526237 95.07907405 17.13953049 95.29296875 22.80322266 C95.33085668 23.67993307 95.3687446 24.55664349 95.40778065 25.45992088 C95.84676411 36.93324839 95.72082753 48.40915154 95.61401367 59.88769531 C95.59473097 62.29812444 95.57567701 64.7085554 95.55683899 67.11898804 C95.51623258 72.12266434 95.47104834 77.12627412 95.42285156 82.12988281 C95.36163089 88.55240361 95.31501656 94.97494249 95.27202129 101.3976078 C95.23679047 106.35257824 95.19255189 111.30743737 95.14566994 116.26231003 C95.12460585 118.63305468 95.10670913 121.00382964 95.09201622 123.37462234 C95.07057036 126.66511844 95.03668683 129.95525481 94.99951172 133.24560547 C94.99578049 134.22622452 94.99204926 135.20684357 94.98820496 136.21717834 C94.97559631 137.10816727 94.96298767 137.99915619 94.94999695 138.91714478 C94.94316737 139.6931283 94.9363378 140.46911182 94.92930126 141.26861 C94.66479492 143.16113281 94.66479492 143.16113281 92.66479492 145.16113281 C89.53933336 145.60740065 86.38099652 145.48523584 83.22729492 145.47363281 C82.35524414 145.48974609 81.48319336 145.50585938 80.5847168 145.52246094 C79.32691406 145.52342773 79.32691406 145.52342773 78.04370117 145.52441406 C76.89236694 145.5288855 76.89236694 145.5288855 75.71777344 145.53344727 C73.66479492 145.16113281 73.66479492 145.16113281 70.66479492 142.16113281 C70.66479492 136.55113281 70.66479492 130.94113281 70.66479492 125.16113281 C46.57479492 125.16113281 22.48479492 125.16113281 -2.33520508 125.16113281 C-2.33520508 130.77113281 -2.33520508 136.38113281 -2.33520508 142.16113281 C-5.71602583 145.54195357 -5.71602583 145.54195357 -9.67895508 145.55957031 C-10.51297852 145.5634375 -11.34700195 145.56730469 -12.20629883 145.57128906 C-13.50760742 145.55388672 -13.50760742 145.55388672 -14.83520508 145.53613281 C-15.70274414 145.54773438 -16.5702832 145.55933594 -17.46411133 145.57128906 C-18.29813477 145.56742188 -19.1321582 145.56355469 -19.99145508 145.55957031 C-21.13324219 145.55449463 -21.13324219 145.55449463 -22.2980957 145.54931641 C-24.93731052 145.04639795 -25.68969651 144.26768399 -27.33520508 142.16113281 C-27.71552181 139.88336849 -27.71552181 139.88336849 -27.72288513 137.16014099 C-27.73278976 136.12711349 -27.7426944 135.094086 -27.75289917 134.02975464 C-27.74839752 132.89675934 -27.74389587 131.76376404 -27.73925781 130.59643555 C-27.74612106 129.40261765 -27.75298431 128.20879974 -27.76005554 126.97880554 C-27.7752414 123.70144505 -27.77681033 120.42444015 -27.77111316 117.1470592 C-27.76802276 114.40651463 -27.77411296 111.6660215 -27.7801519 108.92548424 C-27.79421122 102.45215114 -27.79262775 95.97894991 -27.78125 89.50561523 C-27.7698017 82.84536255 -27.78378529 76.18551409 -27.81064647 69.52531475 C-27.83287807 63.79687886 -27.83942314 58.06856912 -27.83357006 52.3400932 C-27.83021283 48.9236412 -27.83253094 45.50744746 -27.84982109 42.09103203 C-27.8647623 38.27091736 -27.85402719 34.45167977 -27.83691406 30.6315918 C-27.84658203 29.51276611 -27.85625 28.39394043 -27.86621094 27.24121094 C-27.7994669 20.09611275 -26.48331528 14.58352498 -23.33520508 8.16113281 C-22.67520508 8.16113281 -22.01520508 8.16113281 -21.33520508 8.16113281 C-21.33520508 7.50113281 -21.33520508 6.84113281 -21.33520508 6.16113281 C-19.76098633 4.90722656 -19.76098633 4.90722656 -17.64770508 3.59863281 C-16.96321289 3.16421875 -16.2787207 2.72980469 -15.57348633 2.28222656 C-10.63163468 -0.19301152 -5.41771914 0.00782846 0 0 Z " fill="#45B7E5" transform="translate(200.335205078125,123.8388671875)"/>
<path d="M0 0 C0.82131409 -0.0049649 1.64262817 -0.00992981 2.48883057 -0.01504517 C5.21350942 -0.02968331 7.93813003 -0.03647189 10.6628418 -0.04199219 C12.55372622 -0.04774274 14.44461062 -0.05350048 16.335495 -0.05926514 C20.30423251 -0.06978014 24.27294973 -0.07561939 28.24169922 -0.07910156 C33.32613571 -0.0845842 38.41030412 -0.1086052 43.49465656 -0.13707352 C47.40230592 -0.15570252 51.30989078 -0.16090566 55.2175808 -0.16243744 C57.09186454 -0.16546443 58.96614713 -0.1734945 60.84038734 -0.18662262 C63.46411099 -0.20368694 66.08718079 -0.20180188 68.7109375 -0.1953125 C69.87147896 -0.20913467 69.87147896 -0.20913467 71.0554657 -0.22323608 C75.55822372 -0.18836813 78.47702411 0.3562133 82.04956055 3.16113281 C83.18767844 5.4373686 83.18749394 6.72697383 83.21069336 9.25610352 C83.2203009 10.10070633 83.22990845 10.94530914 83.23980713 11.81550598 C83.24405701 12.73007065 83.24830688 13.64463531 83.25268555 14.58691406 C83.25838562 15.52665573 83.26408569 16.4663974 83.2699585 17.43461609 C83.27941528 19.42604443 83.28594517 21.41748847 83.28979492 23.40893555 C83.29948831 26.45096295 83.33050027 29.4923113 83.36206055 32.53417969 C83.36859179 34.46842046 83.37384179 36.40266608 83.37768555 38.33691406 C83.39620575 39.69965202 83.39620575 39.69965202 83.4151001 41.08992004 C83.39823269 45.89008502 83.3226148 49.35535248 80.04956055 53.16113281 C76.64028856 55.69007189 73.2317612 55.39149045 69.09643555 55.35644531 C68.43621399 55.35361542 67.77599243 55.35078552 67.09576416 55.34786987 C64.99684158 55.33671696 62.89835313 55.31162227 60.79956055 55.28613281 C59.3724834 55.27609665 57.94539953 55.26697191 56.51831055 55.25878906 C53.02858727 55.23679392 49.53911631 55.20229817 46.04956055 55.16113281 C46.04956055 54.50113281 46.04956055 53.84113281 46.04956055 53.16113281 C46.68120117 52.88140625 47.3128418 52.60167969 47.96362305 52.31347656 C55.77328714 48.81375677 63.41726242 45.02742106 71.04956055 41.16113281 C71.04956055 40.17113281 71.04956055 39.18113281 71.04956055 38.16113281 C66.50185245 38.74170946 62.8301485 39.9546567 58.6628418 41.84863281 C57.47754883 42.38230469 56.29225586 42.91597656 55.07104492 43.46582031 C53.83458236 44.03063026 52.59825557 44.59573753 51.36206055 45.16113281 C48.92173073 46.26769452 46.4797591 47.37057361 44.0378418 48.47363281 C42.42196167 49.21033203 42.42196167 49.21033203 40.7734375 49.96191406 C38.04956055 51.16113281 38.04956055 51.16113281 35.04956055 52.16113281 C35.04956055 53.15113281 35.04956055 54.14113281 35.04956055 55.16113281 C26.13956055 55.16113281 17.22956055 55.16113281 8.04956055 55.16113281 C8.04956055 54.50113281 8.04956055 53.84113281 8.04956055 53.16113281 C8.59741211 52.95359375 9.14526367 52.74605469 9.7097168 52.53222656 C17.66411002 49.44100708 25.34452496 45.81845637 33.04956055 42.16113281 C33.04956055 40.84113281 33.04956055 39.52113281 33.04956055 38.16113281 C29.02216683 38.77001019 25.95549603 40.07856337 22.36206055 41.97363281 C17.73116551 44.354585 13.09951211 46.41835444 8.2409668 48.28222656 C5.80356159 49.22191393 5.80356159 49.22191393 2.61206055 50.91113281 C0.04956055 52.16113281 0.04956055 52.16113281 -2.95043945 52.16113281 C-2.95043945 52.82113281 -2.95043945 53.48113281 -2.95043945 54.16113281 C-6.13793945 54.53613281 -6.13793945 54.53613281 -9.95043945 54.16113281 C-13.60497438 50.87681557 -15.21485116 48.63170534 -15.59741211 43.70385742 C-15.63016885 41.9907008 -15.63438752 40.27683092 -15.61450195 38.56347656 C-15.61928558 37.65159073 -15.62406921 36.7397049 -15.6289978 35.80018616 C-15.6323886 33.87971259 -15.62324374 31.95918066 -15.60229492 30.03881836 C-15.57548547 27.10367043 -15.60208528 24.17233539 -15.6340332 21.23730469 C-15.63072956 19.36685357 -15.62432427 17.49640481 -15.61450195 15.62597656 C-15.62462311 14.75190659 -15.63474426 13.87783661 -15.64517212 12.97727966 C-15.55970633 8.52456643 -15.3992629 6.72372652 -12.53393555 3.13208008 C-8.29860527 -0.09905027 -5.16775194 0.00740839 0 0 Z " fill="#B2E2F7" transform="translate(199.950439453125,141.8388671875)"/>
<path d="M0 0 C11.55 0 23.1 0 35 0 C37 9 37 9 35.625 11.5625 C35.08875 12.036875 34.5525 12.51125 34 13 C35.32 13.66 36.64 14.32 38 15 C38.29296875 21.0546875 38.29296875 21.0546875 38 23 C33.085569 26.27628733 28.27704126 26.12615891 22.5078125 25.87890625 C21.30898437 25.83056641 20.11015625 25.78222656 18.875 25.73242188 C17.6375 25.67634766 16.4 25.62027344 15.125 25.5625 C13.86429688 25.51029297 12.60359375 25.45808594 11.3046875 25.40429688 C8.20284763 25.27505355 5.10136512 25.14010469 2 25 C2 24.34 2 23.68 2 23 C1.34 23 0.68 23 0 23 C0 15.41 0 7.82 0 0 Z " fill="#4DB4DC" transform="translate(217,219)"/>
<path d="M0 0 C1.59134766 -0.00386719 1.59134766 -0.00386719 3.21484375 -0.0078125 C6.0625 0.125 6.0625 0.125 9.0625 1.125 C10.46136325 3.9227265 10.19224597 6.24888892 10.1953125 9.375 C10.19660156 10.6228125 10.19789063 11.870625 10.19921875 13.15625 C10.19535156 14.4659375 10.19148438 15.775625 10.1875 17.125 C10.19330078 19.08953125 10.19330078 19.08953125 10.19921875 21.09375 C10.19792969 22.3415625 10.19664062 23.589375 10.1953125 24.875 C10.19418457 26.02484375 10.19305664 27.1746875 10.19189453 28.359375 C10.0625 31.125 10.0625 31.125 9.0625 33.125 C6.07779662 34.17097864 3.20670318 34.28853504 0.0625 34.3125 C-1.2059375 34.33376953 -1.2059375 34.33376953 -2.5 34.35546875 C-5.2474453 34.09569427 -6.7495178 33.82947721 -8.9375 32.125 C-10.39068581 27.14264866 -10.12098717 21.78549803 -10.125 16.625 C-10.13724609 15.79613281 -10.14949219 14.96726563 -10.16210938 14.11328125 C-10.17331493 9.41441999 -9.90576837 5.48972144 -7.9375 1.125 C-5.22094597 -0.23327701 -3.02960594 -0.0073445 0 0 Z " fill="#B4E2F5" transform="translate(305.9375,154.875)"/>
<path d="M0 0 C0.33 0 0.66 0 1 0 C1 33.66 1 67.32 1 102 C1.66 102 2.32 102 3 102 C3 102.66 3 103.32 3 104 C7.52251501 105.507505 12.19658549 105.39450092 16.92773438 105.60546875 C22.79852289 105.89926145 22.79852289 105.89926145 25 107 C25.08089542 109.77141717 25.14044062 112.54047819 25.1875 115.3125 C25.21263672 116.09818359 25.23777344 116.88386719 25.26367188 117.69335938 C25.27333984 118.45068359 25.28300781 119.20800781 25.29296875 119.98828125 C25.3086792 120.68477783 25.32438965 121.38127441 25.34057617 122.09887695 C24.88436511 124.64548305 24.07935999 125.48876483 22 127 C19.96289063 127.38818359 19.96289063 127.38818359 17.65625 127.3984375 C16.82222656 127.40230469 15.98820313 127.40617187 15.12890625 127.41015625 C14.26136719 127.39855469 13.39382812 127.38695312 12.5 127.375 C11.63246094 127.38660156 10.76492187 127.39820313 9.87109375 127.41015625 C9.03707031 127.40628906 8.20304688 127.40242188 7.34375 127.3984375 C6.20196289 127.39336182 6.20196289 127.39336182 5.03710938 127.38818359 C2.39585657 126.88487679 1.64353553 126.11151643 0 124 C-0.36914349 121.69430256 -0.36914349 121.69430256 -0.36076355 118.93171692 C-0.36488754 117.88423782 -0.36901154 116.83675873 -0.3732605 115.75753784 C-0.36247467 114.60883209 -0.35168884 113.46012634 -0.34057617 112.27661133 C-0.34101425 111.0667305 -0.34145233 109.85684967 -0.34190369 108.61030579 C-0.34017047 105.29218834 -0.32511487 101.97462931 -0.30418181 98.65661073 C-0.28544094 95.18927798 -0.28366663 91.72193796 -0.28010559 88.25456238 C-0.27077748 81.68847008 -0.24615343 75.12252745 -0.21605712 68.55650109 C-0.18253687 61.08138327 -0.1660331 53.60625834 -0.15097082 46.13108408 C-0.11960446 30.75396935 -0.06682919 15.37700397 0 0 Z " fill="#B8E5F7" transform="translate(173,142)"/>
<path d="M0 0 C1.56041016 0.00580078 1.56041016 0.00580078 3.15234375 0.01171875 C6.0625 0.3125 6.0625 0.3125 10.0625 2.3125 C10.0625 12.2125 10.0625 22.1125 10.0625 32.3125 C4.10876975 34.29707675 -1.81175197 35.76279921 -7.9375 33.3125 C-10.22356619 28.74036761 -9.16766856 22.39483247 -9.1875 17.375 C-9.2184375 15.42303711 -9.2184375 15.42303711 -9.25 13.43164062 C-9.25515625 12.18705078 -9.2603125 10.94246094 -9.265625 9.66015625 C-9.2749707 8.51554932 -9.28431641 7.37094238 -9.29394531 6.19165039 C-8.9375 3.3125 -8.9375 3.3125 -7.59057617 1.43847656 C-5.08684721 -0.26691377 -2.98986939 -0.04804487 0 0 Z " fill="#B4E2F7" transform="translate(161.9375,154.6875)"/>
<path d="M0 0 C0.05786668 3.79160297 0.09355054 7.58309311 0.125 11.375 C0.14175781 12.45523437 0.15851563 13.53546875 0.17578125 14.6484375 C0.18222656 15.6796875 0.18867188 16.7109375 0.1953125 17.7734375 C0.20578613 18.72653809 0.21625977 19.67963867 0.22705078 20.66162109 C0 23 0 23 -2 25 C-5.12546156 25.44626783 -8.2837984 25.32410302 -11.4375 25.3125 C-12.30955078 25.32861328 -13.18160156 25.34472656 -14.08007812 25.36132812 C-15.33788086 25.36229492 -15.33788086 25.36229492 -16.62109375 25.36328125 C-17.3886499 25.36626221 -18.15620605 25.36924316 -18.94702148 25.37231445 C-21.57367741 24.8959617 -22.44605962 24.15093099 -24 22 C-24.24392954 19.04380633 -24.32779815 16.321605 -24.25 13.375 C-24.24484375 12.58609375 -24.2396875 11.7971875 -24.234375 10.984375 C-24.15423563 5.15423563 -24.15423563 5.15423563 -23 4 C-19.4478233 3.79615564 -15.90252457 3.65337422 -12.34570312 3.5703125 C-7.56127389 3.3728468 -3.9803694 0 0 0 Z " fill="#B5E0F3" transform="translate(295,244)"/>
<path d="M0 0 C11.55 0 23.1 0 35 0 C35 2.97 35 5.94 35 9 C23.45 9 11.9 9 0 9 C0 6.03 0 3.06 0 0 Z " fill="#95DDF9" transform="translate(217,219)"/>
<path d="M0 0 C0.82741699 0.01047363 1.65483398 0.02094727 2.50732422 0.03173828 C3.40322266 0.03818359 4.29912109 0.04462891 5.22216797 0.05126953 C6.62789063 0.07640625 6.62789063 0.07640625 8.06201172 0.10205078 C9.00689453 0.11107422 9.95177734 0.12009766 10.92529297 0.12939453 C13.26278464 0.15300556 15.59977295 0.18593562 17.93701172 0.22705078 C19.10684517 2.56671768 19.10313582 4.06096605 19.12451172 6.66455078 C19.13869141 7.44701172 19.15287109 8.22947266 19.16748047 9.03564453 C18.93701172 11.22705078 18.93701172 11.22705078 16.93701172 14.22705078 C14.99755859 14.61523438 14.99755859 14.61523438 12.65576172 14.62548828 C11.393125 14.63128906 11.393125 14.63128906 10.10498047 14.63720703 C9.22455078 14.62560547 8.34412109 14.61400391 7.43701172 14.60205078 C6.55658203 14.61365234 5.67615234 14.62525391 4.76904297 14.63720703 C3.92728516 14.63333984 3.08552734 14.62947266 2.21826172 14.62548828 C1.05907227 14.6204126 1.05907227 14.6204126 -0.12353516 14.61523438 C-2.06298828 14.22705078 -2.06298828 14.22705078 -4.06298828 11.22705078 C-4.32861328 9.03564453 -4.32861328 9.03564453 -4.31298828 6.66455078 C-4.31814453 5.87951172 -4.32330078 5.09447266 -4.32861328 4.28564453 C-3.94904723 1.34400767 -2.95484183 0.32520744 0 0 Z " fill="#B3E2F7" transform="translate(264.06298828125,210.77294921875)"/>
<path d="M0 0 C3.10398978 -0.08710289 6.20766548 -0.14042309 9.3125 -0.1875 C10.19357422 -0.21263672 11.07464844 -0.23777344 11.98242188 -0.26367188 C13.25375977 -0.27817383 13.25375977 -0.27817383 14.55078125 -0.29296875 C15.72120972 -0.31653442 15.72120972 -0.31653442 16.9152832 -0.34057617 C19.53252409 0.08699744 20.39217398 0.93315492 22 3 C22.3984375 4.9375 22.3984375 4.9375 22.375 7 C22.38273437 7.680625 22.39046875 8.36125 22.3984375 9.0625 C21.87769711 11.59472777 20.99713824 12.38672145 19 14 C17.03881836 14.37231445 17.03881836 14.37231445 14.83984375 14.36328125 C14.04642578 14.36263672 13.25300781 14.36199219 12.43554688 14.36132812 C11.61119141 14.34521484 10.78683594 14.32910156 9.9375 14.3125 C9.10927734 14.31572266 8.28105469 14.31894531 7.42773438 14.32226562 C1.26712592 14.26712592 1.26712592 14.26712592 -1 12 C-1.23046875 9.6875 -1.23046875 9.6875 -1.1875 7 C-1.18105469 6.113125 -1.17460937 5.22625 -1.16796875 4.3125 C-1 2 -1 2 0 0 Z " fill="#ABE2F9" transform="translate(187,211)"/>
<path d="M0 0 C1.30517578 0.00322266 2.61035156 0.00644531 3.95507812 0.00976562 C5.25638672 -0.00634766 6.55769531 -0.02246094 7.8984375 -0.0390625 C9.76532227 -0.0400293 9.76532227 -0.0400293 11.66992188 -0.04101562 C12.81452881 -0.04399658 13.95913574 -0.04697754 15.13842773 -0.05004883 C18.01757812 0.32226562 18.01757812 0.32226562 19.91430664 1.4699707 C21.01757812 3.32226562 21.01757812 3.32226562 21.01757812 9.32226562 C9.79757813 9.32226562 -1.42242187 9.32226562 -12.98242188 9.32226562 C-11.49347684 -1.10034964 -9.30765775 0.05307633 0 0 Z " fill="#B3E2F8" transform="translate(229.982421875,204.677734375)"/>
<path d="M0 0 C11.22 0 22.44 0 34 0 C34 2.64 34 5.28 34 8 C22.78 8 11.56 8 0 8 C0 5.36 0 2.72 0 0 Z " fill="#B4E3F4" transform="translate(217,234)"/>
<path d="M0 0 C0.82668686 -0.0049649 1.65337372 -0.00992981 2.50511169 -0.01504517 C5.23152509 -0.02961275 7.9578803 -0.03645964 10.68432617 -0.04199219 C12.58615622 -0.04774794 14.48798625 -0.05350561 16.38981628 -0.05926514 C20.37511464 -0.06975965 24.36039291 -0.0756125 28.34570312 -0.07910156 C33.43984651 -0.08458405 38.53372233 -0.10861345 43.62778187 -0.13707352 C47.55613469 -0.15574236 51.48442358 -0.16090775 55.412817 -0.16243744 C57.29020336 -0.16545473 59.16758883 -0.1734519 61.04493141 -0.18662262 C63.67729406 -0.2037727 66.30900963 -0.20178121 68.94140625 -0.1953125 C69.70895233 -0.20452728 70.47649841 -0.21374207 71.26730347 -0.22323608 C76.66563795 -0.18190447 80.73697499 0.91567388 85.66479492 3.16113281 C86.15979492 4.15113281 86.15979492 4.15113281 86.66479492 5.16113281 C85.88346191 5.00789551 85.10212891 4.8546582 84.29711914 4.69677734 C79.71515949 4.02109382 75.17145368 3.79726223 70.54760742 3.59082031 C69.55353378 3.54492767 68.55946014 3.49903503 67.53526306 3.45175171 C64.28703156 3.30621156 61.03854653 3.16954248 57.78979492 3.03613281 C56.68441376 2.99033081 55.57903259 2.94452881 54.44015503 2.89733887 C38.85457086 2.27181541 23.32131533 2.02043415 7.72729492 2.41113281 C6.44353973 2.43938141 6.44353973 2.43938141 5.1338501 2.46820068 C2.73862309 2.52493815 0.34451129 2.59701057 -2.05004883 2.67675781 C-2.75082047 2.69467377 -3.4515921 2.71258972 -4.17359924 2.73104858 C-7.74474914 2.87719221 -9.27714952 3.12242911 -12.33520508 5.16113281 C-13.65520508 5.16113281 -14.97520508 5.16113281 -16.33520508 5.16113281 C-16.33520508 6.15113281 -16.33520508 7.14113281 -16.33520508 8.16113281 C-17.98520508 8.49113281 -19.63520508 8.82113281 -21.33520508 9.16113281 C-21.66520508 10.81113281 -21.99520508 12.46113281 -22.33520508 14.16113281 C-22.99520508 14.16113281 -23.65520508 14.16113281 -24.33520508 14.16113281 C-24.66520508 15.15113281 -24.99520508 16.14113281 -25.33520508 17.16113281 C-25.66520508 16.50113281 -25.99520508 15.84113281 -26.33520508 15.16113281 C-25.39941513 12.80131468 -24.401727 10.46482017 -23.33520508 8.16113281 C-22.67520508 8.16113281 -22.01520508 8.16113281 -21.33520508 8.16113281 C-21.33520508 7.50113281 -21.33520508 6.84113281 -21.33520508 6.16113281 C-19.76098633 4.90722656 -19.76098633 4.90722656 -17.64770508 3.59863281 C-16.96321289 3.16421875 -16.2787207 2.72980469 -15.57348633 2.28222656 C-10.63163468 -0.19301152 -5.41771914 0.00782846 0 0 Z " fill="#5FB3D1" transform="translate(200.335205078125,123.8388671875)"/>
<path d="M0 0 C7.48602246 5.85862627 7.48602246 5.85862627 8.32076931 10.96050644 C8.35296094 11.64528187 8.38515257 12.3300573 8.4183197 13.0355835 C8.45772202 13.81768314 8.49712435 14.59978279 8.53772068 15.40558243 C8.56902041 16.24594921 8.60032015 17.08631599 8.63256836 17.95214844 C8.67059791 18.83699795 8.70862745 19.72184746 8.74780941 20.63351059 C9.12226257 30.347522 9.02739921 40.04808261 8.87890625 49.765625 C8.85451084 51.66517455 8.83067264 53.56473132 8.80735779 55.46429443 C8.74545117 60.38949012 8.67613625 65.31455265 8.60510254 70.23962402 C8.53355787 75.29510595 8.46926212 80.35068 8.40429688 85.40625 C8.27649477 95.27093461 8.14084046 105.1354935 8 115 C7.34 115 6.68 115 6 115 C5.99853344 114.45646976 5.99706688 113.91293951 5.99555588 113.35293865 C5.9585182 100.13293171 5.8992909 86.91318498 5.81609726 73.69338512 C5.77653869 67.30038086 5.74439132 60.90751606 5.72900391 54.5144043 C5.71389258 48.34805988 5.67954539 42.18209869 5.63169098 36.01592445 C5.61682007 33.65996946 5.60895574 31.30395977 5.60811615 28.94795799 C5.60576194 25.65523484 5.57880636 22.36358425 5.54589844 19.07104492 C5.5509288 18.09065247 5.55595917 17.11026001 5.56114197 16.10015869 C5.54027275 14.75612221 5.54027275 14.75612221 5.51898193 13.38493347 C5.51529476 12.6060184 5.51160759 11.82710333 5.50780869 11.02458477 C4.80450893 8.22059575 3.37978856 7.52555073 1 6 C-0.01801357 5.01834406 -1.0246803 4.02408568 -2 3 C-1.34 2.67 -0.68 2.34 0 2 C0 1.34 0 0.68 0 0 Z " fill="#5AADCC" transform="translate(287,129)"/>
<path d="M0 0 C0.33 0.66 0.66 1.32 1 2 C0.33333333 3.66666667 -0.33333333 5.33333333 -1 7 C-1.3813074 9.32597511 -1.72460254 11.65912158 -2 14 C-2.66 14 -3.32 14 -4 14 C-4.33 14.99 -4.66 15.98 -5 17 C-5.66 17 -6.32 17 -7 17 C-7.1546875 18.2375 -7.1546875 18.2375 -7.3125 19.5 C-7.8435332 22.20344173 -8.42842077 24.242591 -9.4375 26.75 C-11.0340023 30.75675577 -11.79148547 34.74688556 -12.47265625 38.99609375 C-12.64667969 39.65738281 -12.82070312 40.31867188 -13 41 C-13.99 41.495 -13.99 41.495 -15 42 C-16.1437134 45.18936365 -16.1532419 48.32361965 -16.20532227 51.68652344 C-16.22526749 52.82740417 -16.24521271 53.96828491 -16.26576233 55.14373779 C-16.28247482 56.36989807 -16.29918732 57.59605835 -16.31640625 58.859375 C-16.33718735 60.11888977 -16.35796844 61.37840454 -16.37937927 62.67608643 C-16.43366302 66.01658871 -16.48392069 69.35710222 -16.53222656 72.69769287 C-16.58255704 76.10971393 -16.6381827 79.52164823 -16.69335938 82.93359375 C-16.80045114 89.62232664 -16.9022354 96.31112463 -17 103 C-17.33 103 -17.66 103 -18 103 C-19.81228932 94.27362463 -20.34325673 85.75211924 -20.31567383 76.87451172 C-20.31252401 74.76606936 -20.33603675 72.65905061 -20.36132812 70.55078125 C-20.44528138 52.31674377 -16.06613726 34.97955021 -9.0625 18.1875 C-8.73870361 17.41108154 -8.41490723 16.63466309 -8.08129883 15.8347168 C-5.72782186 10.35144841 -2.98434326 5.16494426 0 0 Z " fill="#65B7D6" transform="translate(120,126)"/>
<path d="M0 0 C1.56041016 0.00580078 1.56041016 0.00580078 3.15234375 0.01171875 C6.0625 0.3125 6.0625 0.3125 10.0625 2.3125 C10.0625 12.2125 10.0625 22.1125 10.0625 32.3125 C4.10876975 34.29707675 -1.81175197 35.76279921 -7.9375 33.3125 C-10.22356619 28.74036761 -9.16766856 22.39483247 -9.1875 17.375 C-9.2184375 15.42303711 -9.2184375 15.42303711 -9.25 13.43164062 C-9.25515625 12.18705078 -9.2603125 10.94246094 -9.265625 9.66015625 C-9.2749707 8.51554932 -9.28431641 7.37094238 -9.29394531 6.19165039 C-8.9375 3.3125 -8.9375 3.3125 -7.59057617 1.43847656 C-5.08684721 -0.26691377 -2.98986939 -0.04804487 0 0 Z M-6.9375 3.3125 C-6.9375 12.5525 -6.9375 21.7925 -6.9375 31.3125 C-1.9875 31.3125 2.9625 31.3125 8.0625 31.3125 C8.0625 22.0725 8.0625 12.8325 8.0625 3.3125 C3.1125 3.3125 -1.8375 3.3125 -6.9375 3.3125 Z " fill="#BFDBE8" transform="translate(161.9375,154.6875)"/>
<path d="M0 0 C-3.05894603 1.77179727 -5.24775135 2.24597983 -8.76855469 2.22705078 C-9.70922791 2.22689972 -10.64990112 2.22674866 -11.61907959 2.22659302 C-12.62650208 2.21627045 -13.63392456 2.20594788 -14.671875 2.1953125 C-15.70942932 2.1924826 -16.74698364 2.18965271 -17.815979 2.18673706 C-21.12743701 2.17554865 -24.43862384 2.15044627 -27.75 2.125 C-29.99608984 2.11496848 -32.24218393 2.10584293 -34.48828125 2.09765625 C-39.99227991 2.0756137 -45.49612058 2.04214932 -51 2 C-51 2.66 -51 3.32 -51 4 C-53.04111542 4.48150942 -55.08291932 4.96010083 -57.125 5.4375 C-58.26195312 5.70433594 -59.39890625 5.97117187 -60.5703125 6.24609375 C-64 7 -64 7 -67.3046875 7.47265625 C-70.1389647 7.76684691 -70.1389647 7.76684691 -72 10 C-74.1640625 10.1953125 -74.1640625 10.1953125 -76.625 10.125 C-77.44226563 10.10695313 -78.25953125 10.08890625 -79.1015625 10.0703125 C-79.72804687 10.04710938 -80.35453125 10.02390625 -81 10 C-64.1479568 -6.8520432 -21.22595327 -2.85452475 0 0 Z " fill="#78BDD5" transform="translate(260,63)"/>
<path d="M0 0 C0.87840996 3.09720845 0.99435406 4.90645403 0 8 C-0.66 8 -1.32 8 -2 8 C-2.0928125 9.60875 -2.0928125 9.60875 -2.1875 11.25 C-3.1542451 15.71190045 -4.37022636 16.45915845 -8 19 C-8.33 19.99 -8.66 20.98 -9 22 C-9.99 22.66 -10.98 23.32 -12 24 C-12.103125 24.598125 -12.20625 25.19625 -12.3125 25.8125 C-13.22300755 28.70956949 -15.04442753 29.82940219 -17.38671875 31.640625 C-19.02282557 33.01923317 -20.24945444 34.44096696 -21.5625 36.125 C-23.9327417 38.9206697 -25.87941351 40.19334466 -29 42 C-29.433125 42.70125 -29.86625 43.4025 -30.3125 44.125 C-33.02811783 47.14235315 -36.04589789 46.74071462 -40 47 C-39.01 46.505 -39.01 46.505 -38 46 C-38 45.34 -38 44.68 -38 44 C-32.58823529 40 -32.58823529 40 -30 40 C-30 39.34 -30 38.68 -30 38 C-28.42578125 36.484375 -28.42578125 36.484375 -26.3125 34.75 C-23.64650867 32.49924272 -21.28989909 30.29950455 -19.125 27.5625 C-18.42375 26.716875 -17.7225 25.87125 -17 25 C-16.34 25 -15.68 25 -15 25 C-14.731875 24.443125 -14.46375 23.88625 -14.1875 23.3125 C-12.89100504 20.78774666 -11.57523677 18.36285516 -10 16 C-9.34 16 -8.68 16 -8 16 C-7.73445313 15.29488281 -7.46890625 14.58976562 -7.1953125 13.86328125 C-5.93501033 10.84432214 -4.46042006 8.04814924 -2.875 5.1875 C-2.33617187 4.21167969 -1.79734375 3.23585937 -1.2421875 2.23046875 C-0.83226562 1.49441406 -0.42234375 0.75835937 0 0 Z " fill="#6FBDDA" transform="translate(336,245)"/>
<path d="M0 0 C0.66 0 1.32 0 2 0 C1.10445059 7.54820216 1.10445059 7.54820216 0.49291992 10.19335938 C-0.45639712 15.59868316 -0.2257093 21.12206528 -0.24023438 26.59741211 C-0.24980305 28.76782639 -0.28079313 30.93723502 -0.3125 33.10742188 C-0.41996906 46.88760486 1.43393769 59.7527014 6.9375 72.5 C7.27201172 73.3146875 7.60652344 74.129375 7.95117188 74.96875 C10.08409509 80.09762894 12.46648983 85.05767143 15 90 C14.01 90.495 14.01 90.495 13 91 C12.34 89.35 11.68 87.7 11 86 C10.34 86 9.68 86 9 86 C8.87625 85.360625 8.7525 84.72125 8.625 84.0625 C8.41875 83.381875 8.2125 82.70125 8 82 C7.34 81.67 6.68 81.34 6 81 C5.1091598 78.18494497 4.46234376 75.34118892 3.78125 72.46875 C3.5234375 71.6540625 3.265625 70.839375 3 70 C2.34 69.67 1.68 69.34 1 69 C0.40234375 66.41796875 0.40234375 66.41796875 -0.0625 63.1875 C-0.62899092 59.10702436 -0.62899092 59.10702436 -1.52096558 55.09333801 C-2.03730327 52.83698803 -2.12700254 50.8394399 -2.12939453 48.52612305 C-2.13254669 47.64808517 -2.13569885 46.7700473 -2.13894653 45.86540222 C-2.1369223 44.92368668 -2.13489807 43.98197113 -2.1328125 43.01171875 C-2.13376923 42.03515823 -2.13472595 41.05859772 -2.13571167 40.05244446 C-2.13639174 37.98719213 -2.13454948 35.92193766 -2.13037109 33.85668945 C-2.12503771 30.70974872 -2.13031302 27.56295182 -2.13671875 24.41601562 C-2.1360576 22.40624969 -2.13477568 20.39648384 -2.1328125 18.38671875 C-2.13483673 17.4510759 -2.13686096 16.51543304 -2.13894653 15.55143738 C-2.09113888 2.09113888 -2.09113888 2.09113888 0 0 Z " fill="#60B8D2" transform="translate(123,166)"/>
<path d="M0 0 C9.9 0 19.8 0 30 0 C30.33 1.65 30.66 3.3 31 5 C20.77 5 10.54 5 0 5 C0 3.35 0 1.7 0 0 Z " fill="#B4E2F6" transform="translate(219,221)"/>
<path d="M0 0 C0.66 0 1.32 0 2 0 C2 0.66 2 1.32 2 2 C3.32 2.66 4.64 3.32 6 4 C6.29296875 10.0546875 6.29296875 10.0546875 6 12 C1.085569 15.27628733 -3.72295874 15.12615891 -9.4921875 14.87890625 C-10.69101563 14.83056641 -11.88984375 14.78222656 -13.125 14.73242188 C-14.98125 14.64831055 -14.98125 14.64831055 -16.875 14.5625 C-18.13570312 14.51029297 -19.39640625 14.45808594 -20.6953125 14.40429688 C-23.79715237 14.27505355 -26.89863488 14.14010469 -30 14 C-30 13.34 -30 12.68 -30 12 C-19.44 12 -8.88 12 2 12 C2 9.36 2 6.72 2 4 C-9.22 4 -20.44 4 -32 4 C-32 3.67 -32 3.34 -32 3 C-21.44 2.67 -10.88 2.34 0 2 C0 1.34 0 0.68 0 0 Z " fill="#59BADF" transform="translate(249,230)"/>
<path d="M0 0 C-0.0546875 1.7421875 -0.0546875 1.7421875 -1 4 C-3.37197256 5.56751304 -5.60124664 6.858307 -8.125 8.125 C-8.77726562 8.47175781 -9.42953125 8.81851563 -10.1015625 9.17578125 C-14.32034878 11.36050986 -18.39431703 12.83960715 -23 14 C-23 13.34 -23 12.68 -23 12 C-22.34 12 -21.68 12 -21 12 C-21 11.34 -21 10.68 -21 10 C-22.32 9.34 -23.64 8.68 -25 8 C-21.78100134 6.45693866 -18.54845903 4.94462833 -15.3125 3.4375 C-13.94448242 2.78104492 -13.94448242 2.78104492 -12.54882812 2.11132812 C-11.21948242 1.49741211 -11.21948242 1.49741211 -9.86328125 0.87109375 C-9.05157471 0.48880615 -8.23986816 0.10651855 -7.40356445 -0.28735352 C-4.56219669 -1.12980679 -2.8217372 -0.7927215 0 0 Z " fill="#5ABAE0" transform="translate(272,180)"/>
<path d="M0 0 C11.22 0 22.44 0 34 0 C34 2.64 34 5.28 34 8 C22.78 8 11.56 8 0 8 C0 5.36 0 2.72 0 0 Z M2 2 C2 3.32 2 4.64 2 6 C5.70069481 6.8543328 9.12711641 7.12859476 12.921875 7.1328125 C14.58283203 7.13474609 14.58283203 7.13474609 16.27734375 7.13671875 C17.42332031 7.13285156 18.56929687 7.12898437 19.75 7.125 C20.91144531 7.12886719 22.07289063 7.13273438 23.26953125 7.13671875 C24.37167969 7.13542969 25.47382813 7.13414062 26.609375 7.1328125 C28.1248291 7.13112061 28.1248291 7.13112061 29.67089844 7.12939453 C31.96042885 7.26183611 31.96042885 7.26183611 33 6 C33.04063832 4.33382885 33.042721 2.66611905 33 1 C22.6477438 0.78630664 12.33187567 1.43331534 2 2 Z " fill="#A3E4FC" transform="translate(217,234)"/>
<path d="M0 0 C0.33 0.66 0.66 1.32 1 2 C0.33333333 3.66666667 -0.33333333 5.33333333 -1 7 C-1.3813074 9.32597511 -1.72460254 11.65912158 -2 14 C-2.66 14 -3.32 14 -4 14 C-4.33 14.99 -4.66 15.98 -5 17 C-5.66 17 -6.32 17 -7 17 C-7.1546875 18.2375 -7.1546875 18.2375 -7.3125 19.5 C-7.8435332 22.20344173 -8.42842077 24.242591 -9.4375 26.75 C-11.0340023 30.75675577 -11.79148547 34.74688556 -12.47265625 38.99609375 C-12.64667969 39.65738281 -12.82070312 40.31867188 -13 41 C-13.99 41.495 -13.99 41.495 -15 42 C-15.61728413 44.4803939 -15.61728413 44.4803939 -16 47.375 C-16.54615432 51.0712944 -16.8898195 52.83472925 -19 56 C-18.53571811 36.4579532 -9.62757351 16.69042456 0 0 Z " fill="#7CBCD6" transform="translate(120,126)"/>
<path d="M0 0 C0.82741699 0.01047363 1.65483398 0.02094727 2.50732422 0.03173828 C3.40322266 0.03818359 4.29912109 0.04462891 5.22216797 0.05126953 C6.62789063 0.07640625 6.62789063 0.07640625 8.06201172 0.10205078 C9.00689453 0.11107422 9.95177734 0.12009766 10.92529297 0.12939453 C13.26278464 0.15300556 15.59977295 0.18593562 17.93701172 0.22705078 C19.10684517 2.56671768 19.10313582 4.06096605 19.12451172 6.66455078 C19.13869141 7.44701172 19.15287109 8.22947266 19.16748047 9.03564453 C18.93701172 11.22705078 18.93701172 11.22705078 16.93701172 14.22705078 C14.99755859 14.61523438 14.99755859 14.61523438 12.65576172 14.62548828 C11.393125 14.63128906 11.393125 14.63128906 10.10498047 14.63720703 C9.22455078 14.62560547 8.34412109 14.61400391 7.43701172 14.60205078 C6.55658203 14.61365234 5.67615234 14.62525391 4.76904297 14.63720703 C3.92728516 14.63333984 3.08552734 14.62947266 2.21826172 14.62548828 C1.05907227 14.6204126 1.05907227 14.6204126 -0.12353516 14.61523438 C-2.06298828 14.22705078 -2.06298828 14.22705078 -4.06298828 11.22705078 C-4.32861328 9.03564453 -4.32861328 9.03564453 -4.31298828 6.66455078 C-4.31814453 5.87951172 -4.32330078 5.09447266 -4.32861328 4.28564453 C-3.94904723 1.34400767 -2.95484183 0.32520744 0 0 Z M-1.06298828 3.22705078 C-1.24861328 4.52642578 -1.43423828 5.82580078 -1.62548828 7.16455078 C-1.72990234 7.89544922 -1.83431641 8.62634766 -1.94189453 9.37939453 C-1.98185547 9.98912109 -2.02181641 10.59884766 -2.06298828 11.22705078 C-1.08966567 12.4204683 -1.08966567 12.4204683 0.70288086 12.34057617 C1.45174561 12.33533936 2.20061035 12.33010254 2.97216797 12.32470703 C3.78105469 12.32148438 4.58994141 12.31826172 5.42333984 12.31494141 C6.69854492 12.30237305 6.69854492 12.30237305 7.99951172 12.28955078 C8.85351562 12.28503906 9.70751953 12.28052734 10.58740234 12.27587891 C12.70396835 12.26405452 14.82049857 12.24611847 16.93701172 12.22705078 C16.93701172 8.59705078 16.93701172 4.96705078 16.93701172 1.22705078 C10.4303228 1.0663918 5.0736001 1.04515269 -1.06298828 3.22705078 Z " fill="#9BE1FB" transform="translate(264.06298828125,210.77294921875)"/>
<path d="M0 0 C1.16257324 0.01047363 2.32514648 0.02094727 3.52294922 0.03173828 C5.40820312 0.04140625 5.40820312 0.04140625 7.33154297 0.05126953 C9.30960938 0.07640625 9.30960938 0.07640625 11.32763672 0.10205078 C12.66747393 0.11208096 14.00731823 0.12120674 15.34716797 0.12939453 C18.63250244 0.15303003 21.91748137 0.18597844 25.20263672 0.22705078 C25.53263672 0.88705078 25.86263672 1.54705078 26.20263672 2.22705078 C16.96263672 2.22705078 7.72263672 2.22705078 -1.79736328 2.22705078 C-2.45736328 3.87705078 -3.11736328 5.52705078 -3.79736328 7.22705078 C6.43263672 7.22705078 16.66263672 7.22705078 27.20263672 7.22705078 C27.53263672 5.90705078 27.86263672 4.58705078 28.20263672 3.22705078 C28.20263672 5.20705078 28.20263672 7.18705078 28.20263672 9.22705078 C16.98263672 9.22705078 5.76263672 9.22705078 -5.79736328 9.22705078 C-4.53175957 0.36782479 -4.53175957 0.36782479 0 0 Z " fill="#91DAF7" transform="translate(222.79736328125,204.77294921875)"/>
<path d="M0 0 C1 2 1 2 0.58227539 4.04760742 C-0.21908162 8.11084027 -0.23506722 12.10552841 -0.31640625 16.23828125 C-0.33718735 17.11904831 -0.35796844 17.99981537 -0.37937927 18.90727234 C-0.44453937 21.70893879 -0.50360321 24.51069557 -0.5625 27.3125 C-0.60571715 29.21680606 -0.64933244 31.12110312 -0.69335938 33.02539062 C-0.80018623 37.68350218 -0.9015474 42.34170422 -1 47 C-0.34 47 0.32 47 1 47 C1 47.66 1 48.32 1 49 C2.32 49 3.64 49 5 49 C5 49.66 5 50.32 5 51 C6.32 51.33 7.64 51.66 9 52 C5.8125 52.375 5.8125 52.375 2 52 C-1.67138487 48.70889415 -3.27066689 46.47587407 -3.61523438 41.52685547 C-3.63457368 39.80705997 -3.62596423 38.08679002 -3.59375 36.3671875 C-3.59379028 35.45292999 -3.59383057 34.53867249 -3.59387207 33.59671021 C-3.58852933 31.67198783 -3.57100006 29.74726509 -3.54199219 27.82275391 C-3.50003209 24.87725257 -3.50093564 21.93403197 -3.5078125 18.98828125 C-3.49732279 17.11456745 -3.48438587 15.24086542 -3.46875 13.3671875 C-3.46854858 12.48795624 -3.46834717 11.60872498 -3.46813965 10.70285034 C-3.34971938 4.59124014 -3.34971938 4.59124014 -1.47070312 1.41455078 C-0.74270508 0.71434814 -0.74270508 0.71434814 0 0 Z " fill="#93DCF8" transform="translate(188,144)"/>
<path d="M0 0 C0.99 0.33 1.98 0.66 3 1 C3.0246985 4.95099928 3.04285923 8.90196874 3.05493164 12.85302734 C3.06244036 14.85906551 3.0751447 16.86508202 3.08789062 18.87109375 C3.09272461 20.75634766 3.09272461 20.75634766 3.09765625 22.6796875 C3.10551147 24.42354736 3.10551147 24.42354736 3.11352539 26.20263672 C3 29 3 29 2 31 C-1.08142868 32.10348459 -4.00234962 32.10523224 -7.25 32.0625 C-8.14203125 32.05347656 -9.0340625 32.04445312 -9.953125 32.03515625 C-10.62859375 32.02355469 -11.3040625 32.01195312 -12 32 C-12.33 31.34 -12.66 30.68 -13 30 C-9.04 29.67 -5.08 29.34 -1 29 C-0.67 19.43 -0.34 9.86 0 0 Z " fill="#D6E3E9" transform="translate(313,157)"/>
<path d="M0 0 C0.33 0 0.66 0 1 0 C3.61153685 21.40919279 2.19957229 42.13238322 -3 63 C-3.33 63 -3.66 63 -4 63 C-4.0270043 61.54176788 -4.04639787 60.08339325 -4.0625 58.625 C-4.07410156 57.81289062 -4.08570313 57.00078125 -4.09765625 56.1640625 C-4 54 -4 54 -3 52 C-0.90165779 40.57890904 -0.59228039 29.14060258 -0.375 17.5625 C-0.33669364 15.84829023 -0.29763529 14.13409709 -0.2578125 12.41992188 C-0.16323823 8.2800877 -0.07872617 4.14016462 0 0 Z " fill="#7BBCD2" transform="translate(367,177)"/>
<path d="M0 0 C1.32 0.33 2.64 0.66 4 1 C4 1.99 4 2.98 4 4 C4.66 4 5.32 4 6 4 C6.268125 4.804375 6.53625 5.60875 6.8125 6.4375 C7.204375 7.283125 7.59625 8.12875 8 9 C8.99 9.33 9.98 9.66 11 10 C11.33 10.66 11.66 11.32 12 12 C13.2065625 12.6496875 13.2065625 12.6496875 14.4375 13.3125 C17.54204977 15.3569596 17.75208383 16.56823053 19 20 C20.26639268 21.86732424 21.60335784 23.65929013 22.9765625 25.44921875 C24 27 24 27 24 29 C24.99 29.33 25.98 29.66 27 30 C27.33 31.65 27.66 33.3 28 35 C27.34 34.67 26.68 34.34 26 34 C26 33.34 26 32.68 26 32 C25.34 32 24.68 32 24 32 C22.40625 30.26953125 22.40625 30.26953125 20.5 27.8125 C19.79101562 26.90242188 19.08203125 25.99234375 18.3515625 25.0546875 C17.57554687 24.04664063 16.79953125 23.03859375 16 22 C15.15433407 20.9187322 14.30796496 19.83801405 13.4609375 18.7578125 C8.7107682 12.67350732 4.14414411 6.51944622 0 0 Z " fill="#5FB5D4" transform="translate(198,399)"/>
<path d="M0 0 C1.09570312 0.00902344 2.19140625 0.01804688 3.3203125 0.02734375 C4.16335938 0.03894531 5.00640625 0.05054688 5.875 0.0625 C5.875 0.7225 5.875 1.3825 5.875 2.0625 C2.575 2.0625 -0.725 2.0625 -4.125 2.0625 C-4.455 3.0525 -4.785 4.0425 -5.125 5.0625 C-5.785 5.0625 -6.445 5.0625 -7.125 5.0625 C-7.11452637 5.7738208 -7.10405273 6.4851416 -7.09326172 7.21801758 C-7.05171999 10.43697586 -7.02567961 13.65587776 -7 16.875 C-6.97486328 18.55432617 -6.97486328 18.55432617 -6.94921875 20.26757812 C-6.94277344 21.34072266 -6.93632812 22.41386719 -6.9296875 23.51953125 C-6.91921387 24.50928955 -6.90874023 25.49904785 -6.89794922 26.51879883 C-7.125 29.0625 -7.125 29.0625 -9.125 32.0625 C-10.18014376 26.86275157 -10.30839348 21.84348416 -10.3125 16.5625 C-10.32474609 15.73363281 -10.33699219 14.90476563 -10.34960938 14.05078125 C-10.36081493 9.35191999 -10.09326837 5.42722144 -8.125 1.0625 C-5.36047967 -0.31976016 -3.0788637 -0.03275387 0 0 Z " fill="#C3DFE9" transform="translate(306.125,154.9375)"/>
<path d="M0 0 C1.6875 0.75 1.6875 0.75 2.6875 1.75 C4.24922745 1.83685603 5.81479344 1.85702219 7.37890625 1.84765625 C8.32314453 1.84443359 9.26738281 1.84121094 10.24023438 1.83789062 C11.23345703 1.82951172 12.22667969 1.82113281 13.25 1.8125 C14.24708984 1.80798828 15.24417969 1.80347656 16.27148438 1.79882812 C18.74354849 1.78700007 21.21549518 1.77051849 23.6875 1.75 C23.6875 1.09 23.6875 0.43 23.6875 -0.25 C24.6775 0.08 25.6675 0.41 26.6875 0.75 C24.0092588 3.54997943 22.71078571 4.71102966 18.70654297 4.86352539 C16.83699951 4.85567017 16.83699951 4.85567017 14.9296875 4.84765625 C13.93511032 4.84553383 13.93511032 4.84553383 12.92044067 4.84336853 C10.80108137 4.83776754 8.68182741 4.825215 6.5625 4.8125 C5.12630361 4.80748512 3.69010556 4.80292219 2.25390625 4.79882812 C-1.26826345 4.78779782 -4.79037145 4.77053259 -8.3125 4.75 C-8.3125 4.09 -8.3125 3.43 -8.3125 2.75 C-2.91740463 -0.3153951 -2.91740463 -0.3153951 0 0 Z " fill="#93DDF9" transform="translate(254.3125,192.25)"/>
<path d="M0 0 C1.34578125 -0.02803711 1.34578125 -0.02803711 2.71875 -0.05664062 C3.50185547 -0.07758789 4.28496094 -0.09853516 5.09179688 -0.12011719 C7 0.08398438 7 0.08398438 9 2.08398438 C6.16032429 3.03054295 4.50304738 3.19003086 1.5703125 3.14648438 C0.69850342 3.13794434 -0.17330566 3.1294043 -1.0715332 3.12060547 C-1.99667725 3.10852051 -2.92182129 3.09643555 -3.875 3.08398438 C-18.34855006 2.85736764 -18.34855006 2.85736764 -32.5625 5.20898438 C-35.89793613 6.05800448 -36.88978306 6.05039752 -40 5.08398438 C-32.15207023 1.19581393 -25.18225754 0.44021889 -16.5 0.33398438 C-15.34113281 0.30433594 -14.18226563 0.2746875 -12.98828125 0.24414062 C-8.65888638 0.14140922 -4.3288688 0.12118578 0 0 Z " fill="#6CB4CE" transform="translate(243,80.916015625)"/>
<path d="M0 0 C2.66666667 1.33333333 5.33333333 2.66666667 8 4 C8 4.66 8 5.32 8 6 C10.31 6.33 12.62 6.66 15 7 C15.12375 7.928125 15.12375 7.928125 15.25 8.875 C16.2494275 11.70671124 17.34458422 11.70467523 20 13 C22.3743362 14.79088157 24.67018472 16.66177826 26.9765625 18.5390625 C28.85429994 20.19512542 28.85429994 20.19512542 31 20 C31.495 22.475 31.495 22.475 32 25 C28.28171073 23.7309593 26.19688997 22.44620259 23.625 19.5 C19.89263093 15.60380557 15.85209359 12.64965609 11.375 9.6875 C10.74158691 9.26726562 10.10817383 8.84703125 9.45556641 8.4140625 C5.74874969 6.00545451 1.99969141 3.90139176 -2 2 C-1.34 1.34 -0.68 0.68 0 0 Z " fill="#68B5CB" transform="translate(287,94)"/>
<path d="M0 0 C3 1 3 1 4.09765625 2.671875 C4.41605469 3.35765625 4.73445312 4.0434375 5.0625 4.75 C5.39894531 5.46671875 5.73539063 6.1834375 6.08203125 6.921875 C7.11486564 9.26003626 8.10240315 11.60640841 9 14 C9.66 14 10.32 14 11 14 C12.4216319 17.3171411 13.39009109 20.44219804 14 24 C14.99 24.33 15.98 24.66 17 25 C17.69937532 26.31647119 18.36729133 27.65022151 19 29 C19.66 29.33 20.32 29.66 21 30 C21.75 31.9375 21.75 31.9375 22 34 C21.34 34.66 20.68 35.32 20 36 C14.9149931 27.60032193 9.89029297 19.16587294 4.9375 10.6875 C4.44854248 9.85758545 3.95958496 9.0276709 3.45581055 8.17260742 C3.0050415 7.39763916 2.55427246 6.6226709 2.08984375 5.82421875 C1.68628662 5.13416748 1.28272949 4.44411621 0.86694336 3.7331543 C0 2 0 2 0 0 Z " fill="#73BCD6" transform="translate(134,302)"/>
<path d="M0 0 C0.33 0 0.66 0 1 0 C1.08089542 2.77141717 1.14044062 5.54047819 1.1875 8.3125 C1.21263672 9.09818359 1.23777344 9.88386719 1.26367188 10.69335938 C1.27333984 11.45068359 1.28300781 12.20800781 1.29296875 12.98828125 C1.3086792 13.68477783 1.32438965 14.38127441 1.34057617 15.09887695 C0.88372179 17.64907412 0.08968465 18.49477765 -2 20 C-4.0847168 20.34057617 -4.0847168 20.34057617 -6.44921875 20.29296875 C-7.29677734 20.28330078 -8.14433594 20.27363281 -9.01757812 20.26367188 C-10.33918945 20.2259668 -10.33918945 20.2259668 -11.6875 20.1875 C-12.58017578 20.17396484 -13.47285156 20.16042969 -14.39257812 20.14648438 C-16.59566166 20.11114079 -18.79752582 20.06180493 -21 20 C-21.66 18.68 -22.32 17.36 -23 16 C-22.34 16 -21.68 16 -21 16 C-21 16.66 -21 17.32 -21 18 C-18.02046641 17.85982174 -15.04150696 17.71313658 -12.0625 17.5625 C-11.21236328 17.52318359 -10.36222656 17.48386719 -9.48632812 17.44335938 C-8.67744141 17.40146484 -7.86855469 17.35957031 -7.03515625 17.31640625 C-5.91185913 17.26141968 -5.91185913 17.26141968 -4.76586914 17.20532227 C-2.97538674 17.18228937 -2.97538674 17.18228937 -2 16 C-1.78936893 13.49583065 -1.62427923 11.00859919 -1.5 8.5 C-1.13513514 1.13513514 -1.13513514 1.13513514 0 0 Z " fill="#C6DDEA" transform="translate(197,249)"/>
<path d="M0 0 C5.06896927 4.76175901 10.77462269 10.32386806 13 17 C13.66 17 14.32 17 15 17 C15 17.66 15 18.32 15 19 C15.66 19 16.32 19 17 19 C17 19.66 17 20.32 17 21 C18.32 21.66 19.64 22.32 21 23 C21 23.99 21 24.98 21 26 C18.69 25.67 16.38 25.34 14 25 C13.938125 23.6696875 13.938125 23.6696875 13.875 22.3125 C12.88596033 18.56827837 11.77267504 17.90290179 8.765625 15.69140625 C4.86837213 11.95797596 2.39243977 6.79195776 0 2 C0 1.34 0 0.68 0 0 Z " fill="#6CB9D7" transform="translate(138,257)"/>
<path d="M0 0 C1.670625 0.061875 1.670625 0.061875 3.375 0.125 C3.375 0.785 3.375 1.445 3.375 2.125 C4.5815625 2.00125 4.5815625 2.00125 5.8125 1.875 C9.88039004 2.16046597 12.54657577 3.3661326 16.18359375 5.1015625 C18.84641867 6.34516344 21.56839544 7.26142937 24.375 8.125 C24.045 8.785 23.715 9.445 23.375 10.125 C18.71043246 9.48631306 14.42665226 8.23967347 10 6.6875 C4.83390998 4.91646828 -0.29423998 3.32170123 -5.625 2.125 C-3.625 0.125 -3.625 0.125 0 0 Z " fill="#67BBD6" transform="translate(259.625,82.875)"/>
<path d="M0 0 C-0.33 0.99 -0.66 1.98 -1 3 C-2.24716797 3.19916016 -2.24716797 3.19916016 -3.51953125 3.40234375 C-4.60621094 3.57894531 -5.69289063 3.75554687 -6.8125 3.9375 C-7.89144531 4.11152344 -8.97039062 4.28554688 -10.08203125 4.46484375 C-13.04933356 4.93871921 -13.04933356 4.93871921 -16 6 C-18.51368055 6.0846817 -20.99869374 6.11601885 -23.51171875 6.09765625 C-24.23994339 6.0962413 -24.96816803 6.09482635 -25.71846008 6.09336853 C-28.04151539 6.08777659 -30.36447388 6.07522562 -32.6875 6.0625 C-34.26367048 6.05748396 -35.83984248 6.05292123 -37.41601562 6.04882812 C-41.27738098 6.0378098 -45.13867408 6.02055074 -49 6 C-49 5.67 -49 5.34 -49 5 C-48.31188232 4.9906543 -47.62376465 4.98130859 -46.91479492 4.97167969 C-33.47420995 4.74355095 -20.70946278 4.06645355 -7.6328125 0.83984375 C-4 0 -4 0 0 0 Z " fill="#95D7E7" transform="translate(273,304)"/>
<path d="M0 0 C-8.75 7 -8.75 7 -13 7 C-13 7.66 -13 8.32 -13 9 C-15.08203125 10.62109375 -15.08203125 10.62109375 -17.8125 12.4375 C-21.44786342 14.84611068 -21.44786342 14.84611068 -24.69921875 17.72265625 C-26 19 -26 19 -28 19 C-27.67 16.69 -27.34 14.38 -27 12 C-26.113125 11.90332031 -25.22625 11.80664062 -24.3125 11.70703125 C-20.74104738 10.94472827 -18.90013024 9.85795003 -16 7.6875 C-15.14019531 7.06101562 -14.28039062 6.43453125 -13.39453125 5.7890625 C-11.9951154 4.74349568 -10.59635555 3.69704776 -9.19921875 2.6484375 C-6.01582284 0.36165698 -3.93170177 -0.46255315 0 0 Z " fill="#78B9D0" transform="translate(185,94)"/>
<path d="M0 0 C1.20269531 -0.00257813 2.40539062 -0.00515625 3.64453125 -0.0078125 C6.91910318 0.11493882 9.97422598 0.50498082 13.1875 1.125 C13.1875 1.455 13.1875 1.785 13.1875 2.125 C12.28656616 2.16258423 12.28656616 2.16258423 11.36743164 2.20092773 C8.66138563 2.3165528 5.95571717 2.43942936 3.25 2.5625 C1.83170898 2.62147461 1.83170898 2.62147461 0.38476562 2.68164062 C-0.51435547 2.72353516 -1.41347656 2.76542969 -2.33984375 2.80859375 C-3.58882446 2.86358032 -3.58882446 2.86358032 -4.86303711 2.91967773 C-6.81588858 2.91867103 -6.81588858 2.91867103 -7.8125 4.125 C-7.91108603 5.5805937 -7.94222143 7.04107919 -7.9375 8.5 C-7.94007813 9.29148438 -7.94265625 10.08296875 -7.9453125 10.8984375 C-7.89867666 13.29843496 -7.89867666 13.29843496 -6.8125 16.125 C-8.1325 15.795 -9.4525 15.465 -10.8125 15.125 C-10.83944851 13.16674127 -10.85887218 11.20837774 -10.875 9.25 C-10.88660156 8.15945312 -10.89820313 7.06890625 -10.91015625 5.9453125 C-10.8125 3.125 -10.8125 3.125 -9.8125 1.125 C-6.36047535 -0.02567488 -3.63631728 -0.00774508 0 0 Z " fill="#51B5DE" transform="translate(268.8125,208.875)"/>
<path d="M0 0 C-0.33 0.66 -0.66 1.32 -1 2 C4.94 1.67 10.88 1.34 17 1 C17 1.99 17 2.98 17 4 C8.09 4 -0.82 4 -10 4 C-10 3.34 -10 2.68 -10 2 C-8.71211992 1.46987262 -7.41953322 0.9511671 -6.125 0.4375 C-5.40570313 0.14746094 -4.68640625 -0.14257812 -3.9453125 -0.44140625 C-2 -1 -2 -1 0 0 Z " fill="#8DDDF9" transform="translate(218,193)"/>
<path d="M0 0 C1.32 0.33 2.64 0.66 4 1 C4 1.99 4 2.98 4 4 C4.66 4 5.32 4 6 4 C6 4.66 6 5.32 6 6 C6.99 6.33 7.98 6.66 9 7 C9.75826566 8.68137168 10.50810605 10.36810285 11.1796875 12.0859375 C12.80023485 15.86721464 15.10357695 19.10357695 18 22 C17.34 22.99 16.68 23.98 16 25 C13.71842929 21.60229522 11.43984769 18.20260824 9.1640625 14.80102539 C8.38884833 13.64324433 7.61280804 12.48601599 6.8359375 11.3293457 C5.72180516 9.67022643 4.61085133 8.00897409 3.5 6.34765625 C2.8296875 5.34742432 2.159375 4.34719238 1.46875 3.31665039 C0 1 0 1 0 0 Z " fill="#6CB8D2" transform="translate(157,341)"/>
<path d="M0 0 C-2.0683684 1.6990169 -3.55211478 2.89762624 -6.1875 3.5 C-6.785625 3.665 -7.38375 3.83 -8 4 C-8.33 4.99 -8.66 5.98 -9 7 C-10.423125 7.12375 -10.423125 7.12375 -11.875 7.25 C-12.90625 7.4975 -13.9375 7.745 -15 8 C-16.09166275 9.93330603 -16.09166275 9.93330603 -17 12 C-19.4375 13.3125 -19.4375 13.3125 -22 14 C-22.99 13.67 -23.98 13.34 -25 13 C-5.52501471 -1.84167157 -5.52501471 -1.84167157 0 0 Z " fill="#77C2D9" transform="translate(180,74)"/>
<path d="M0 0 C1.32 0.33 2.64 0.66 4 1 C4 3.64 4 6.28 4 9 C4.99 9.33 5.98 9.66 7 10 C6.67 15.28 6.34 20.56 6 26 C5.67 26 5.34 26 5 26 C4.80664062 24.87722656 4.61328125 23.75445312 4.4140625 22.59765625 C3.09985088 15.02424767 1.76879907 7.48338069 0 0 Z " fill="#5BB2D1" transform="translate(342,160)"/>
<path d="M0 0 C0 0.99 0 1.98 0 3 C-9.8380744 8.05908096 -9.8380744 8.05908096 -14.6875 7.8125 C-15.8321875 7.4103125 -15.8321875 7.4103125 -17 7 C-17 6.34 -17 5.68 -17 5 C-11.39860914 1.87195056 -6.55208602 0 0 0 Z " fill="#44B5E3" transform="translate(267,182)"/>
<path d="M0 0 C2.63367854 2.32842739 3.88530951 4.56256994 5.26171875 7.78125 C5.85629883 9.16763672 5.85629883 9.16763672 6.46289062 10.58203125 C6.86701172 11.54496094 7.27113281 12.50789062 7.6875 13.5 C8.10322266 14.46292969 8.51894531 15.42585937 8.94726562 16.41796875 C12 23.60618073 12 23.60618073 12 27 C11.34 27 10.68 27 10 27 C9.29423828 25.26363281 9.29423828 25.26363281 8.57421875 23.4921875 C7.94543497 21.95307496 7.31652186 20.41401525 6.6875 18.875 C6.37876953 18.11445313 6.07003906 17.35390625 5.75195312 16.5703125 C4.3683353 13.19137213 2.96549769 9.93411071 1.26953125 6.6953125 C0 4 0 4 0 0 Z " fill="#68B5CD" transform="translate(350,130)"/>
<path d="M0 0 C-2.00805873 4.92887144 -5.47857082 8.00776358 -9.875 10.875 C-13.74581528 12.2684935 -16.04585978 12.04448987 -20 11 C-20.99 10.01 -21.98 9.02 -23 8 C-18.71 8.33 -14.42 8.66 -10 9 C-9.67 7.68 -9.34 6.36 -9 5 C-7.68 5 -6.36 5 -5 5 C-5.33 4.01 -5.66 3.02 -6 2 C-2.25 0 -2.25 0 0 0 Z " fill="#6CB7D6" transform="translate(249,426)"/>
<path d="M0 0 C0.99 0.33 1.98 0.66 3 1 C3 1.66 3 2.32 3 3 C3.99 3.33 4.98 3.66 6 4 C8.22108774 7.23342024 8.37415731 10.40374545 8.625 14.25 C8.69976562 15.32765625 8.77453125 16.4053125 8.8515625 17.515625 C8.92503906 18.74539062 8.92503906 18.74539062 9 20 C6.75232407 16.6284861 5.07945264 13.09930172 3.375 9.4375 C3.05015625 8.75236328 2.7253125 8.06722656 2.390625 7.36132812 C0 2.24358259 0 2.24358259 0 0 Z " fill="#6ABAD7" transform="translate(333,140)"/>
<path d="M0 0 C13.365 0.495 13.365 0.495 27 1 C27 1.66 27 2.32 27 3 C18.09 3 9.18 3 0 3 C0 2.01 0 1.02 0 0 Z " fill="#44B7E9" transform="translate(222,229)"/>
<path d="M0 0 C0.66 0 1.32 0 2 0 C1.10930828 7.50725875 1.10930828 7.50725875 0.5 10.25390625 C-0.04654496 13.25563364 -0.21126956 16.12681717 -0.31640625 19.17578125 C-0.35830078 20.33271484 -0.40019531 21.48964844 -0.44335938 22.68164062 C-0.48267578 23.87982422 -0.52199219 25.07800781 -0.5625 26.3125 C-0.60568359 27.53001953 -0.64886719 28.74753906 -0.69335938 30.00195312 C-0.79921496 33.0011947 -0.90129726 36.00051591 -1 39 C-1.33 39 -1.66 39 -2 39 C-2.02487594 34.71330142 -2.04294275 30.42664205 -2.05493164 26.13989258 C-2.05993417 24.68415596 -2.0667383 23.22842429 -2.07543945 21.77270508 C-2.087685 19.67007212 -2.09326923 17.56750609 -2.09765625 15.46484375 C-2.10289307 14.202771 -2.10812988 12.94069824 -2.11352539 11.64038086 C-1.80686695 1.80686695 -1.80686695 1.80686695 0 0 Z " fill="#97D1E1" transform="translate(123,166)"/>
<path d="M0 0 C0.33 0 0.66 0 1 0 C1.33 9.57 1.66 19.14 2 29 C-1.40887983 29.85221996 -3.80434631 30.10783755 -7.25 30.0625 C-8.14203125 30.05347656 -9.0340625 30.04445312 -9.953125 30.03515625 C-10.62859375 30.02355469 -11.3040625 30.01195312 -12 30 C-12.33 29.34 -12.66 28.68 -13 28 C-9.04 27.67 -5.08 27.34 -1 27 C-0.67 18.09 -0.34 9.18 0 0 Z " fill="#C4DEE9" transform="translate(313,159)"/>
<path d="M0 0 C-0.99 1.485 -0.99 1.485 -2 3 C-3.32 3 -4.64 3 -6 3 C-6 3.99 -6 4.98 -6 6 C-7.65 6.33 -9.3 6.66 -11 7 C-11.33 8.65 -11.66 10.3 -12 12 C-12.66 12 -13.32 12 -14 12 C-14.33 12.99 -14.66 13.98 -15 15 C-15.33 14.34 -15.66 13.68 -16 13 C-15.06421005 10.64018187 -14.06652192 8.30368736 -13 6 C-12.34 6 -11.68 6 -11 6 C-11 5.34 -11 4.68 -11 4 C-9.35546875 2.67578125 -9.35546875 2.67578125 -7.1875 1.3125 C-6.47980469 0.85488281 -5.77210938 0.39726563 -5.04296875 -0.07421875 C-3 -1 -3 -1 0 0 Z " fill="#67B9D5" transform="translate(190,126)"/>
<path d="M0 0 C-1 3 -1 3 -3.03125 4.09765625 C-3.8459375 4.41605469 -4.660625 4.73445312 -5.5 5.0625 C-8.96056812 6.22702003 -8.96056812 6.22702003 -11 9 C-19.25 9 -27.5 9 -36 9 C-36 8.67 -36 8.34 -36 8 C-28.08 8 -20.16 8 -12 8 C-12 7.01 -12 6.02 -12 5 C-10.37750059 4.16180842 -8.75191503 3.3295884 -7.125 2.5 C-6.22007812 2.0359375 -5.31515625 1.571875 -4.3828125 1.09375 C-2 0 -2 0 0 0 Z " fill="#4EB4DE" transform="translate(247,189)"/>
<path d="M0 0 C0.33 0.66 0.66 1.32 1 2 C0.33333333 3.66666667 -0.33333333 5.33333333 -1 7 C-1.3813074 9.32597511 -1.72460254 11.65912158 -2 14 C-2.66 14 -3.32 14 -4 14 C-4.33 14.99 -4.66 15.98 -5 17 C-5.66 17 -6.32 17 -7 17 C-7.33 18.32 -7.66 19.64 -8 21 C-9.15661707 17.53014878 -8.90024784 17.15859213 -7.3828125 14.0234375 C-7.02316406 13.270625 -6.66351563 12.5178125 -6.29296875 11.7421875 C-5.90753906 10.96101562 -5.52210937 10.17984375 -5.125 9.375 C-4.55845703 8.19164062 -4.55845703 8.19164062 -3.98046875 6.984375 C-1.1761576 1.1761576 -1.1761576 1.1761576 0 0 Z " fill="#6DBDD9" transform="translate(120,126)"/>
<path d="M0 0 C-0.62064199 3.03406233 -1.60757725 5.27236405 -3.25 7.890625 C-3.6934375 8.59960938 -4.136875 9.30859375 -4.59375 10.0390625 C-5.0578125 10.76867187 -5.521875 11.49828125 -6 12.25 C-6.4640625 12.99507813 -6.928125 13.74015625 -7.40625 14.5078125 C-9.95927167 18.55999224 -9.95927167 18.55999224 -11 20 C-11.33 20 -11.66 20 -12 20 C-12 18.02 -12 16.04 -12 14 C-11.34 14 -10.68 14 -10 14 C-9.67 13.01 -9.34 12.02 -9 11 C-8.34 11 -7.68 11 -7 11 C-6.87625 10.46375 -6.7525 9.9275 -6.625 9.375 C-5.87394317 6.52098405 -5.04340771 3.76196159 -4 1 C-2 0 -2 0 0 0 Z " fill="#70BCD7" transform="translate(327,315)"/>
<path d="M0 0 C0.66 0 1.32 0 2 0 C0.50829734 4.9723422 -1.60457417 9.41845739 -4 14 C-4.66 13.34 -5.32 12.68 -6 12 C-5.625 8.375 -5.625 8.375 -5 5 C-5.66 5 -6.32 5 -7 5 C-7 4.34 -7 3.68 -7 3 C-5.5459375 2.814375 -5.5459375 2.814375 -4.0625 2.625 C-2.5465625 2.315625 -2.5465625 2.315625 -1 2 C-0.67 1.34 -0.34 0.68 0 0 Z " fill="#69BCDA" transform="translate(136,136)"/>
<path d="M0 0 C0.33 0 0.66 0 1 0 C1.64618593 3.70827198 2.29188591 7.41662842 2.9375 11.125 C3.11990234 12.17171875 3.30230469 13.2184375 3.49023438 14.296875 C4.34281699 19.19534968 5.19359427 24.09365775 6 29 C-0.80083909 20.73231326 -0.40189347 10.19618607 0 0 Z " fill="#79BDD1" transform="translate(121,205)"/>
<path d="M0 0 C0.495 1.98 0.495 1.98 1 4 C-2.69158318 6.46105545 -5.46623554 6.25575793 -9.73046875 6.1953125 C-10.48088943 6.1924826 -11.23131012 6.18965271 -12.00447083 6.18673706 C-14.39897675 6.17555062 -16.79310731 6.15044928 -19.1875 6.125 C-20.81184355 6.11496819 -22.43619297 6.10584269 -24.06054688 6.09765625 C-28.040509 6.07561637 -32.02019088 6.0410974 -36 6 C-36 5.67 -36 5.34 -36 5 C-35.08186523 4.97494385 -34.16373047 4.9498877 -33.21777344 4.92407227 C-29.80342975 4.8287973 -26.38924797 4.72957222 -22.97509766 4.62768555 C-21.4989061 4.58443965 -20.02266785 4.54275744 -18.54638672 4.50268555 C-16.42140652 4.44473154 -14.29665907 4.38111054 -12.171875 4.31640625 C-10.8940918 4.27974854 -9.61630859 4.24309082 -8.29980469 4.20532227 C-4.54976542 4.02334092 -4.54976542 4.02334092 -1 3 C-0.67 2.01 -0.34 1.02 0 0 Z " fill="#53B7DF" transform="translate(281,192)"/>
<path d="M0 0 C0.99 0.33 1.98 0.66 3 1 C1.55797524 5.15151338 -0.5010438 8.29978445 -3.125 11.8125 C-4.21167969 13.27623047 -4.21167969 13.27623047 -5.3203125 14.76953125 C-6.15175781 15.87361328 -6.15175781 15.87361328 -7 17 C-7.66 15.68 -8.32 14.36 -9 13 C-8.01 13 -7.02 13 -6 13 C-6.33 11.02 -6.66 9.04 -7 7 C-5.35 7 -3.7 7 -2 7 C-2 6.01 -2 5.02 -2 4 C-1.34 4 -0.68 4 0 4 C0 2.68 0 1.36 0 0 Z " fill="#6EBBDB" transform="translate(303,348)"/>
<path d="M0 0 C0.66 0 1.32 0 2 0 C0.59023295 3.03852705 -1.08870228 5.5939595 -3.125 8.25 C-3.66382813 8.95640625 -4.20265625 9.6628125 -4.7578125 10.390625 C-5.16773438 10.92171875 -5.57765625 11.4528125 -6 12 C-7.94566951 8.52452927 -8.07637127 6.87493656 -7 3 C-5.5459375 2.5359375 -5.5459375 2.5359375 -4.0625 2.0625 C-1.15934208 1.30476658 -1.15934208 1.30476658 0 0 Z " fill="#59BDE1" transform="translate(265,403)"/>
<path d="M0 0 C0.33 2.31 0.66 4.62 1 7 C-2.96 8.98 -2.96 8.98 -7 11 C-7.66 10.34 -8.32 9.68 -9 9 C-6.69 8.01 -4.38 7.02 -2 6 C-2 4.68 -2 3.36 -2 2 C-5.02419525 2.58803797 -8.01758453 3.22678118 -11 4 C-11 3.01 -11 2.02 -11 1 C-7.32589215 -0.17571451 -3.83070817 -0.07366746 0 0 Z " fill="#A3E3FD" transform="translate(235,178)"/>
<path d="M0 0 C0.66 0.33 1.32 0.66 2 1 C0.33333333 6 -1.33333333 11 -3 16 C-3.66 15.67 -4.32 15.34 -5 15 C-5 12.03 -5 9.06 -5 6 C-4.01 6 -3.02 6 -2 6 C-2 5.01 -2 4.02 -2 3 C-1.34 3 -0.68 3 0 3 C0 2.01 0 1.02 0 0 Z " fill="#62B8D4" transform="translate(129,149)"/>
<path d="M0 0 C0.66 0.33 1.32 0.66 2 1 C-1.00366684 10.77789419 -1.00366684 10.77789419 -4 15 C-4.33 15 -4.66 15 -5 15 C-4.64989059 4.84682713 -4.64989059 4.84682713 -1.9375 1.3125 C-0.9784375 0.6628125 -0.9784375 0.6628125 0 0 Z " fill="#6ABCD9" transform="translate(352,264)"/>
<path d="M0 0 C0.66 0.33 1.32 0.66 2 1 C1.34 2.32 0.68 3.64 0 5 C-6.27 5 -12.54 5 -19 5 C-19 4.34 -19 3.68 -19 3 C-13.06 2.67 -7.12 2.34 -1 2 C-0.67 1.34 -0.34 0.68 0 0 Z " fill="#C4DFEA" transform="translate(293,264)"/>
<path d="M0 0 C0.33 0 0.66 0 1 0 C1 4.29 1 8.58 1 13 C1.66 13.33 2.32 13.66 3 14 C0.69 15.98 -1.62 17.96 -4 20 C-2.68 13.4 -1.36 6.8 0 0 Z " fill="#6FBCD6" transform="translate(346,212)"/>
<path d="M0 0 C0.66 0.99 1.32 1.98 2 3 C0.6875 5.5 0.6875 5.5 -1 8 C-1.99 8 -2.98 8 -4 8 C-4.33 9.32 -4.66 10.64 -5 12 C-6.32 12.33 -7.64 12.66 -9 13 C-6.38888348 8.16459904 -3.62542917 4.12896099 0 0 Z " fill="#62BAD9" transform="translate(133,108)"/>
<path d="M0 0 C1.98 0 3.96 0 6 0 C4.65070536 3.83663072 2.92248975 6.65172569 0.375 9.8125 C-0.25664062 10.60269531 -0.88828125 11.39289063 -1.5390625 12.20703125 C-2.02117187 12.79871094 -2.50328125 13.39039063 -3 14 C-4 11 -4 11 -3.25 8.375 C-2 6 -2 6 1 5 C0.67 3.35 0.34 1.7 0 0 Z " fill="#67BBD9" transform="translate(272,388)"/>
<path d="M0 0 C7.7498635 0.52541447 14.6450086 2.55591476 22 5 C22 5.33 22 5.66 22 6 C14.40935336 5.51298949 7.32940833 4.00236413 0 2 C0 1.34 0 0.68 0 0 Z " fill="#70BED3" transform="translate(260,64)"/>
<path d="M0 0 C0.33 0 0.66 0 1 0 C1.08071788 2.79224073 1.14035408 5.58216566 1.1875 8.375 C1.22520508 9.56609375 1.22520508 9.56609375 1.26367188 10.78125 C1.29004405 12.85586148 1.15486462 14.93100865 1 17 C0.01 17.66 -0.98 18.32 -2 19 C-2 15.44686461 -1.78568462 11.91930505 -1.5625 8.375 C-1.52318359 7.68148438 -1.48386719 6.98796875 -1.44335938 6.2734375 C-1.11598182 1.11598182 -1.11598182 1.11598182 0 0 Z " fill="#B7D0DA" transform="translate(197,249)"/>
<path d="M0 0 C1.4216868 4.26506039 -0.34613318 7.20037743 -1.9375 11.1875 C-2.22818359 11.93708984 -2.51886719 12.68667969 -2.81835938 13.45898438 C-3.53725036 15.30924477 -4.26754653 17.15506648 -5 19 C-5.33 19 -5.66 19 -6 19 C-5.66666667 16.66666667 -5.33333333 14.33333333 -5 12 C-4.896875 10.80375 -4.79375 9.6075 -4.6875 8.375 C-3.91386683 4.57716443 -2.62464273 2.79397452 0 0 Z " fill="#7ABCD6" transform="translate(360,246)"/>
<path d="M0 0 C1.125 3.75 1.125 3.75 0 6 C-0.3912935 8.54197964 -0.74479119 11.07391589 -1.0625 13.625 C-1.15337891 14.33140625 -1.24425781 15.0378125 -1.33789062 15.765625 C-1.56183119 17.5100041 -1.78133818 19.25495134 -2 21 C-2.66 21 -3.32 21 -4 21 C-4.33 21.66 -4.66 22.32 -5 23 C-4.8659375 22.35546875 -4.731875 21.7109375 -4.59375 21.046875 C-4.12533935 18.64318875 -3.69183225 16.24191642 -3.28125 13.828125 C-3.15363281 13.08175781 -3.02601563 12.33539063 -2.89453125 11.56640625 C-2.62892382 10.00694876 -2.36595218 8.4470403 -2.10546875 6.88671875 C-1.11104911 1.11104911 -1.11104911 1.11104911 0 0 Z " fill="#55B1D5" transform="translate(364,225)"/>
<path d="M0 0 C2.25 0.0625 2.25 0.0625 5 1 C7.125 4.3125 7.125 4.3125 8.08203125 6.2265625 C9.00530303 8.16420021 9.00530303 8.16420021 10.8125 10.1875 C12 12 12 12 11.57421875 14.11328125 C11.38472656 14.73589844 11.19523437 15.35851562 11 16 C9.9944239 14.54550599 8.99569565 13.08627557 8 11.625 C7.443125 10.81289062 6.88625 10.00078125 6.3125 9.1640625 C5 7 5 7 5 5 C4.34 5 3.68 5 3 5 C1.375 2.5 1.375 2.5 0 0 Z " fill="#71B4CF" transform="translate(321,124)"/>
<path d="M0 0 C0.33 0.66 0.66 1.32 1 2 C0.13036621 1.84152588 -0.73926758 1.68305176 -1.63525391 1.51977539 C-4.73444262 1.04102247 -7.70523819 0.80141577 -10.8359375 0.68359375 C-11.89941406 0.64169922 -12.96289062 0.59980469 -14.05859375 0.55664062 C-15.15300781 0.51732422 -16.24742187 0.47800781 -17.375 0.4375 C-19.05142578 0.37272461 -19.05142578 0.37272461 -20.76171875 0.30664062 C-23.50770199 0.20102589 -26.25376881 0.0989203 -29 0 C-29 -0.33 -29 -0.66 -29 -1 C-25.29257072 -1.22716871 -21.58416438 -1.4283696 -17.875 -1.625 C-16.82828125 -1.68945312 -15.7815625 -1.75390625 -14.703125 -1.8203125 C-4.70098466 -2.32674999 -4.70098466 -2.32674999 0 0 Z " fill="#60BBDD" transform="translate(286,127)"/>
<path d="M0 0 C0.99 0.495 0.99 0.495 2 1 C2 2.32 2 3.64 2 5 C2.99 5.33 3.98 5.66 5 6 C5.69937532 7.31647119 6.36729133 8.65022151 7 10 C7.66 10.33 8.32 10.66 9 11 C9.75 12.9375 9.75 12.9375 10 15 C9.34 15.66 8.68 16.32 8 17 C6.65546882 14.92317952 5.32444163 12.83957514 4 10.75 C3.6184375 10.16347656 3.236875 9.57695312 2.84375 8.97265625 C0.72252389 5.6014219 0 4.09419282 0 0 Z " fill="#7FC1D7" transform="translate(146,321)"/>
<path d="M0 0 C0.66 0 1.32 0 2 0 C2 0.66 2 1.32 2 2 C2.66 2 3.32 2 4 2 C4.309375 2.969375 4.61875 3.93875 4.9375 4.9375 C5.69523342 7.84065792 5.69523342 7.84065792 7 9 C7.04092937 11.33297433 7.04241723 13.66705225 7 16 C4.53859635 13.53859635 3.69673014 11.21543707 2.375 8 C1.92898437 6.9275 1.48296875 5.855 1.0234375 4.75 C0 2 0 2 0 0 Z " fill="#71BDD7" transform="translate(112,258)"/>
<path d="M0 0 C4.4062186 1.34634457 6.43077702 3.19374374 9 7 C9 7.66 9 8.32 9 9 C9.99 9.33 10.98 9.66 12 10 C12.33 11.65 12.66 13.3 13 15 C12.34 14.67 11.68 14.34 11 14 C11 13.34 11 12.68 11 12 C10.34 12 9.68 12 9 12 C7.58303493 10.42945794 6.23893184 8.79253336 4.9375 7.125 C4.22464844 6.22007812 3.51179687 5.31515625 2.77734375 4.3828125 C1 2 1 2 0 0 Z " fill="#7BC2D8" transform="translate(213,419)"/>
<path d="M0 0 C0.66 0.33 1.32 0.66 2 1 C3.99021521 0.90276549 3.99021521 0.90276549 6.125 0.5625 C7.40375 0.376875 8.6825 0.19125 10 0 C9.4225 0.28746094 8.845 0.57492188 8.25 0.87109375 C6.82907497 1.58402315 5.41184749 2.30441488 4 3.03515625 C3.01 3.54369141 3.01 3.54369141 2 4.0625 C1.34 4.40410156 0.68 4.74570313 0 5.09765625 C-1.98689737 5.99408846 -3.87384292 6.53964902 -6 7 C-6 6.34 -6 5.68 -6 5 C-5.34 5 -4.68 5 -4 5 C-3.71125 4.360625 -3.4225 3.72125 -3.125 3.0625 C-2 1 -2 1 0 0 Z " fill="#A0E2FB" transform="translate(206,186)"/>
<path d="M0 0 C0.59167969 0.0721875 1.18335938 0.144375 1.79296875 0.21875 C5.88261722 0.69910023 9.8738531 1.13310151 14 1 C6.25274725 6.16483516 6.25274725 6.16483516 2.625 5.6875 C2.08875 5.460625 1.5525 5.23375 1 5 C0.67 3.35 0.34 1.7 0 0 Z " fill="#67BCDD" transform="translate(183,88)"/>
<path d="M0 0 C-0.99 0 -1.98 0 -3 0 C-3 0.66 -3 1.32 -3 2 C-7.37149656 5.66641647 -11.60258708 5.31749488 -17 5 C-14.65117776 2.65117776 -12.72876333 1.96496976 -9.625 0.8125 C-8.66851562 0.44769531 -7.71203125 0.08289063 -6.7265625 -0.29296875 C-3.94714704 -1.01370542 -2.64891897 -0.98549829 0 0 Z " fill="#7CC2DB" transform="translate(196,68)"/>
<path d="M0 0 C0.66 0.33 1.32 0.66 2 1 C1.01 2.65 0.02 4.3 -1 6 C-7.6 5.67 -14.2 5.34 -21 5 C-21 4.67 -21 4.34 -21 4 C-19.81921875 3.96261719 -18.6384375 3.92523438 -17.421875 3.88671875 C-15.86455212 3.82104851 -14.30726186 3.75460153 -12.75 3.6875 C-11.97269531 3.66494141 -11.19539063 3.64238281 -10.39453125 3.61914062 C-6.06020907 3.41539044 -3.21958895 3.22824376 0 0 Z " fill="#99DBF7" transform="translate(293,244)"/>
<path d="M0 0 C0.33 1.32 0.66 2.64 1 4 C-1.57516622 6.63746863 -3.54331396 7.21887499 -7.109375 7.29296875 C-8.65652231 7.27313353 -10.20353396 7.2375101 -11.75 7.1875 C-12.54277344 7.17396484 -13.33554687 7.16042969 -14.15234375 7.14648438 C-16.10185564 7.11125223 -18.05101626 7.05744821 -20 7 C-20 6.67 -20 6.34 -20 6 C-18.95199219 5.96261719 -17.90398437 5.92523438 -16.82421875 5.88671875 C-15.44527695 5.82105485 -14.06637229 5.75460765 -12.6875 5.6875 C-11.65206055 5.65366211 -11.65206055 5.65366211 -10.59570312 5.61914062 C-6.54757542 5.44765943 -6.54757542 5.44765943 -3.14453125 3.45703125 C-2.76683594 2.97621094 -2.38914062 2.49539062 -2 2 C-1.34 2 -0.68 2 0 2 C0 1.34 0 0.68 0 0 Z " fill="#51B4DB" transform="translate(292,241)"/>
<path d="M0 0 C0.66 0 1.32 0 2 0 C0.91720359 3.24838923 0.10963155 4.04282583 -2.4375 6.1875 C-3.05496094 6.71730469 -3.67242187 7.24710937 -4.30859375 7.79296875 C-6 9 -6 9 -8 9 C-7.67 6.69 -7.34 4.38 -7 2 C-6.030625 1.855625 -5.06125 1.71125 -4.0625 1.5625 C-1.13513227 1.32437659 -1.13513227 1.32437659 0 0 Z " fill="#69BBD7" transform="translate(165,104)"/>
<path d="M0 0 C5.46737191 1.74807129 10.75824848 3.65794081 16 6 C15.01 6.66 14.02 7.32 13 8 C12.48050781 7.73445313 11.96101563 7.46890625 11.42578125 7.1953125 C7.66979306 5.29301903 3.94774121 3.48040295 0 2 C0 1.34 0 0.68 0 0 Z " fill="#6FBDD4" transform="translate(282,70)"/>
<path d="M0 0 C0.33 0.99 0.66 1.98 1 3 C1.99 3 2.98 3 4 3 C8 9.625 8 9.625 8 13 C8.66 13.33 9.32 13.66 10 14 C9.01 14 8.02 14 7 14 C5.5005461 12.01685129 4.24582716 10.13504209 3 8 C2.62230469 7.35417969 2.24460938 6.70835937 1.85546875 6.04296875 C0.89081403 4.36930985 -0.05613604 2.68547135 -1 1 C-0.67 0.67 -0.34 0.34 0 0 Z " fill="#7ABFD6" transform="translate(175,365)"/>
<path d="M0 0 C5.78461538 4.43076923 5.78461538 4.43076923 6.875 7.3125 C6.936875 8.1478125 6.936875 8.1478125 7 9 C2.7689353 8.15378706 0.97534593 5.97534593 -2 3 C-1.34 2.67 -0.68 2.34 0 2 C0 1.34 0 0.68 0 0 Z " fill="#6EBCD8" transform="translate(287,129)"/>
<path d="M0 0 C5.0302076 0.52537724 10.01885239 1.10594786 15 2 C15 2.33 15 2.66 15 3 C13.02 3 11.04 3 9 3 C8.67 3.66 8.34 4.32 8 5 C5.36 4.01 2.72 3.02 0 2 C0 1.34 0 0.68 0 0 Z " fill="#67BEDB" transform="translate(199,305)"/>
<path d="M0 0 C3.31027791 5.65293612 1.43686411 11.48953603 -0.0625 17.5625 C-0.371875 18.696875 -0.68125 19.83125 -1 21 C-1.33 21 -1.66 21 -2 21 C-2.0270043 19.54176788 -2.04639787 18.08339325 -2.0625 16.625 C-2.07410156 15.81289062 -2.08570313 15.00078125 -2.09765625 14.1640625 C-2 12 -2 12 -1 10 C-0.77377919 8.29636178 -0.59111527 6.58671299 -0.4375 4.875 C-0.35371094 3.96492187 -0.26992188 3.05484375 -0.18359375 2.1171875 C-0.12300781 1.41851562 -0.06242187 0.71984375 0 0 Z " fill="#77BBCF" transform="translate(365,219)"/>
<path d="M0 0 C2.375 0.3125 2.375 0.3125 5 1 C5.66 1.99 6.32 2.98 7 4 C5.35 4.33 3.7 4.66 2 5 C2 5.66 2 6.32 2 7 C0.02 7.33 -1.96 7.66 -4 8 C-4.33 7.34 -4.66 6.68 -5 6 C-3.02 5.67 -1.04 5.34 1 5 C1 4.34 1 3.68 1 3 C0.34 2.67 -0.32 2.34 -1 2 C-0.67 1.34 -0.34 0.68 0 0 Z " fill="#55B9DB" transform="translate(201,81)"/>
<path d="M0 0 C0 0.66 0 1.32 0 2 C-3.36683915 4.43160605 -4.73350364 5 -9 5 C-9.33 5.99 -9.66 6.98 -10 8 C-12.97 7.505 -12.97 7.505 -16 7 C-16 6.67 -16 6.34 -16 6 C-14.35 6 -12.7 6 -11 6 C-11 5.34 -11 4.68 -11 4 C-9.5437455 3.32880451 -8.08492133 2.66318193 -6.625 2 C-5.81289062 1.62875 -5.00078125 1.2575 -4.1640625 0.875 C-2 0 -2 0 0 0 Z " fill="#5CBCE2" transform="translate(208,190)"/>
<path d="M0 0 C0.99 0.33 1.98 0.66 3 1 C1.71344735 2.81613362 0.42060005 4.62780954 -0.875 6.4375 C-1.95394531 7.95150391 -1.95394531 7.95150391 -3.0546875 9.49609375 C-5 12 -5 12 -7 13 C-6.40312566 9.65750371 -5.26396123 7.53563658 -3 5 C-2.34 5 -1.68 5 -1 5 C-0.67 3.35 -0.34 1.7 0 0 Z " fill="#76C2D9" transform="translate(285,375)"/>
<path d="M0 0 C3.458176 -0.0868329 6.91607344 -0.14033282 10.375 -0.1875 C11.35984375 -0.21263672 12.3446875 -0.23777344 13.359375 -0.26367188 C14.77089844 -0.27817383 14.77089844 -0.27817383 16.2109375 -0.29296875 C17.08024902 -0.3086792 17.94956055 -0.32438965 18.84521484 -0.34057617 C19.55629395 -0.22818604 20.26737305 -0.1157959 21 0 C21.66 0.99 22.32 1.98 23 3 C22.67 3.99 22.34 4.98 22 6 C21.70480469 5.35546875 21.40960938 4.7109375 21.10546875 4.046875 C17.72402226 0.75953184 13.85682724 1.32313475 9.3125 1.25 C8.41982422 1.22035156 7.52714844 1.19070312 6.60742188 1.16015625 C4.40485723 1.08948573 2.20334869 1.03678061 0 1 C0 0.67 0 0.34 0 0 Z " fill="#59B7DB" transform="translate(187,210)"/>
<path d="M0 0 C0.66 0.99 1.32 1.98 2 3 C-0.31 4.98 -2.62 6.96 -5 9 C-5.66 8.67 -6.32 8.34 -7 8 C-6.525625 7.21625 -6.05125 6.4325 -5.5625 5.625 C-4.66101977 4.11051322 -3.78820515 2.5764103 -3 1 C-2.01 0.67 -1.02 0.34 0 0 Z " fill="#5EB1D5" transform="translate(322,269)"/>
<path d="M0 0 C0 0.66 0 1.32 0 2 C1.98 2 3.96 2 6 2 C6 2.33 6 2.66 6 3 C4.06280622 3.05406122 2.12518079 3.09282025 0.1875 3.125 C-0.89144531 3.14820312 -1.97039062 3.17140625 -3.08203125 3.1953125 C-6 3 -6 3 -9 1 C-6.04335481 -0.4783226 -3.25770263 -0.06032783 0 0 Z " fill="#5BB4D5" transform="translate(263,83)"/>
<path d="M0 0 C0.66 0.33 1.32 0.66 2 1 C-0.7819368 4.27286682 -4.27954067 5.96427697 -8 8 C-8.99 7.34 -9.98 6.68 -11 6 C-9.21385682 4.96953278 -7.42089982 3.95086764 -5.625 2.9375 C-4.62726563 2.36902344 -3.62953125 1.80054688 -2.6015625 1.21484375 C-1.74304688 0.81394531 -0.88453125 0.41304688 0 0 Z " fill="#7BBFDD" transform="translate(294,292)"/>
<path d="M0 0 C0.99 0 1.98 0 3 0 C1.22054913 4.04420651 -1.39529673 7.46078487 -4 11 C-5 8 -5 8 -3.5625 4.8125 C-3.046875 3.884375 -2.53125 2.95625 -2 2 C-1.34 2 -0.68 2 0 2 C0 1.34 0 0.68 0 0 Z " fill="#72B5D2" transform="translate(143,125)"/>
<path d="M0 0 C4.875 4.625 4.875 4.625 6 8 C6.66 8 7.32 8 8 8 C8.33 8.99 8.66 9.98 9 11 C8.01 11.495 8.01 11.495 7 12 C5.821389 10.76125579 4.65747085 9.5085199 3.5 8.25 C2.8503125 7.55390625 2.200625 6.8578125 1.53125 6.140625 C0 4 0 4 0 0 Z " fill="#71BCD4" transform="translate(330,102)"/>
<path d="M0 0 C1.62463842 -0.05395478 3.24978541 -0.09277195 4.875 -0.125 C5.77992188 -0.14820312 6.68484375 -0.17140625 7.6171875 -0.1953125 C10 0 10 0 12 2 C8.52674819 3.1577506 5.63932552 3.06866652 2 3 C2 2.34 2 1.68 2 1 C1.34 0.67 0.68 0.34 0 0 Z " fill="#63B9D9" transform="translate(240,81)"/>
<path d="M0 0 C4 1 4 1 5.625 3.4375 C6.07875 4.283125 6.5325 5.12875 7 6 C7.66 6.66 8.32 7.32 9 8 C8.01 9.485 8.01 9.485 7 11 C4.69 7.37 2.38 3.74 0 0 Z " fill="#7BC1D8" transform="translate(166,355)"/>
<path d="M0 0 C0.66 0.33 1.32 0.66 2 1 C0.43358249 5.30764815 -1.68336156 9.06171464 -4 13 C-4.33 11.68 -4.66 10.36 -5 9 C-4.34 9 -3.68 9 -3 9 C-2.87625 8.2575 -2.7525 7.515 -2.625 6.75 C-2.04513299 4.19858515 -1.26291261 2.2732427 0 0 Z " fill="#87C3E0" transform="translate(333,301)"/>
<path d="M0 0 C0 3.48961209 -0.90379374 5.11480295 -2.5 8.1875 C-2.9640625 9.08855469 -3.428125 9.98960937 -3.90625 10.91796875 C-4.2671875 11.60503906 -4.628125 12.29210937 -5 13 C-5.93423645 9.98968256 -6.04449911 9.13349732 -5 6 C-4.34 6 -3.68 6 -3 6 C-2.87625 5.195625 -2.7525 4.39125 -2.625 3.5625 C-2.41875 2.716875 -2.2125 1.87125 -2 1 C-1.34 0.67 -0.68 0.34 0 0 Z " fill="#7DC2DC" transform="translate(345,282)"/>
<path d="M0 0 C1 3 1 3 0.4375 5.5 C-1.45183345 8.7857973 -3.55947594 9.57891398 -7 11 C-5.50079488 7.88626628 -3.91847864 4.87771795 -2 2 C-1.34 2 -0.68 2 0 2 C0 1.34 0 0.68 0 0 Z " fill="#7DBFDB" transform="translate(328,259)"/>
<path d="M0 0 C0.66 0.33 1.32 0.66 2 1 C1.01 3.31 0.02 5.62 -1 8 C-1.66 8 -2.32 8 -3 8 C-3.33 8.99 -3.66 9.98 -4 11 C-4.33 10.34 -4.66 9.68 -5 9 C-4.06421005 6.64018187 -3.06652192 4.30368736 -2 2 C-1.34 2 -0.68 2 0 2 C0 1.34 0 0.68 0 0 Z " fill="#82BED4" transform="translate(179,130)"/>
<path d="M0 0 C-1.05041579 2.86477034 -1.70124563 3.83913226 -4.4375 5.3125 C-7 6 -7 6 -10 5 C-8.90241493 4.15801693 -7.79664683 3.32669329 -6.6875 2.5 C-6.07261719 2.0359375 -5.45773438 1.571875 -4.82421875 1.09375 C-3 0 -3 0 0 0 Z " fill="#66BBD6" transform="translate(165,82)"/>
<path d="M0 0 C0.33 0.66 0.66 1.32 1 2 C-0.43333021 2.39063507 -1.87192679 2.76198474 -3.3125 3.125 C-4.51326172 3.43824219 -4.51326172 3.43824219 -5.73828125 3.7578125 C-8 4 -8 4 -11 2 C-7.36576791 -0.32590854 -4.22911669 -0.16265833 0 0 Z " fill="#53B4D2" transform="translate(204,66)"/>
<path d="M0 0 C1.32 0.33 2.64 0.66 4 1 C2.625 3.5 2.625 3.5 1 6 C0.34 6 -0.32 6 -1 6 C-1.33 6.99 -1.66 7.98 -2 9 C-2.33 7.68 -2.66 6.36 -3 5 C-2.34 4.67 -1.68 4.34 -1 4 C-0.34786708 1.97536745 -0.34786708 1.97536745 0 0 Z " fill="#70BED8" transform="translate(253,416)"/>
<path d="M0 0 C3.47691793 1.15897264 4.22015595 1.8640843 6 5 C6.1875 8.25 6.1875 8.25 6 11 C3.13546142 7.58983503 1.65296434 4.09305456 0 0 Z " fill="#78C0D9" transform="translate(127,290)"/>
<path d="M0 0 C3.28788824 3.11016455 5.83735988 6.01618925 8 10 C6.25 9.9375 6.25 9.9375 4 9 C1.99159505 6.29950956 0 3.44873267 0 0 Z " fill="#75C1D6" transform="translate(138,257)"/>
<path d="M0 0 C0 0.99 0 1.98 0 3 C-6.625 6.125 -6.625 6.125 -10 5 C-8.71186658 4.16121545 -7.41936744 3.32913217 -6.125 2.5 C-5.40570313 2.0359375 -4.68640625 1.571875 -3.9453125 1.09375 C-2 0 -2 0 0 0 Z " fill="#44B8E7" transform="translate(267,182)"/>
<path d="M0 0 C2 2 2 2 2.1953125 4.6015625 C2.17210937 5.59929687 2.14890625 6.59703125 2.125 7.625 C2.10695313 8.62789062 2.08890625 9.63078125 2.0703125 10.6640625 C2.03550781 11.82035156 2.03550781 11.82035156 2 13 C1.67 13 1.34 13 1 13 C-0.2834998 8.9088444 -1.38021934 5.3091525 -1 1 C-0.67 0.67 -0.34 0.34 0 0 Z " fill="#59ACC8" transform="translate(365,172)"/>
<path d="M0 0 C2.10827055 3.16240582 2.33817465 4.50657469 2.625 8.1875 C2.69976562 9.08855469 2.77453125 9.98960937 2.8515625 10.91796875 C2.90054687 11.60503906 2.94953125 12.29210937 3 13 C2.34 12.67 1.68 12.34 1 12 C0.33203125 9.78515625 0.33203125 9.78515625 -0.1875 7.0625 C-0.36667969 6.16660156 -0.54585938 5.27070313 -0.73046875 4.34765625 C-1 2 -1 2 0 0 Z " fill="#6DB1CE" transform="translate(362,158)"/>
<path d="M0 0 C2.31 1.98 4.62 3.96 7 6 C6.01 6.495 6.01 6.495 5 7 C4.67 7.66 4.34 8.32 4 9 C2.00476166 5.87701826 0.91458218 3.65832872 0 0 Z " fill="#70C4DF" transform="translate(323,95)"/>
<path d="M0 0 C1.33333333 0.66666667 2.66666667 1.33333333 4 2 C5.0828125 2.4640625 5.0828125 2.4640625 6.1875 2.9375 C8 4 8 4 9 7 C5.2089881 5.55049545 1.6125362 3.84827434 -2 2 C-1.34 1.34 -0.68 0.68 0 0 Z " fill="#79BFD7" transform="translate(287,94)"/>
<path d="M0 0 C1.32 0.33 2.64 0.66 4 1 C4 1.99 4 2.98 4 4 C4.66 4 5.32 4 6 4 C6.99 5.485 6.99 5.485 8 7 C7.67 7.99 7.34 8.98 7 10 C5.83043409 8.52312468 4.66441854 7.04343707 3.5 5.5625 C2.8503125 4.73878906 2.200625 3.91507812 1.53125 3.06640625 C0 1 0 1 0 0 Z " fill="#87C0D9" transform="translate(198,399)"/>
<path d="M0 0 C3.3 1.65 6.6 3.3 10 5 C4.86057616 6.28485596 3.62164416 5.22194431 -1 3 C-0.67 2.01 -0.34 1.02 0 0 Z " fill="#6EC0D7" transform="translate(173,292)"/>
<path d="M0 0 C0.86625 0.3403125 0.86625 0.3403125 1.75 0.6875 C1.42 2.3375 1.09 3.9875 0.75 5.6875 C0.42 4.6975 0.09 3.7075 -0.25 2.6875 C-2.23 2.6875 -4.21 2.6875 -6.25 2.6875 C-2.80384615 -0.38942308 -2.80384615 -0.38942308 0 0 Z " fill="#5CB9DF" transform="translate(232.25,179.3125)"/>
<path d="M0 0 C2.64 1.98 5.28 3.96 8 6 C4 7 4 7 1.75 6.0625 C1.1725 5.711875 0.595 5.36125 0 5 C0 3.35 0 1.7 0 0 Z " fill="#7EC6DF" transform="translate(315,88)"/>
<path d="M0 0 C4 1 4 1 6.25 4.0625 C7.11625 5.5165625 7.11625 5.5165625 8 7 C7.34 7.66 6.68 8.32 6 9 C4.02 6.03 2.04 3.06 0 0 Z " fill="#70BED3" transform="translate(188,386)"/>
<path d="M0 0 C-0.33 0.99 -0.66 1.98 -1 3 C-3.97 3 -6.94 3 -10 3 C-6.84916414 -0.15083586 -4.41812253 0 0 0 Z " fill="#60B6D4" transform="translate(273,304)"/>
<path d="M0 0 C-1.41519715 2.0343459 -2.54982123 2.90410393 -4.98046875 3.421875 C-6.98176954 3.66273952 -8.9909944 3.83532741 -11 4 C-10.34 3.67 -9.68 3.34 -9 3 C-9 2.34 -9 1.68 -9 1 C-2.25 -1.125 -2.25 -1.125 0 0 Z " fill="#60B8DC" transform="translate(307,288)"/>
<path d="M0 0 C0.66 0 1.32 0 2 0 C3.32 2.64 4.64 5.28 6 8 C5.01 8.495 5.01 8.495 4 9 C3.34 7.35 2.68 5.7 2 4 C1.34 4 0.68 4 0 4 C0 2.68 0 1.36 0 0 Z " fill="#6EB8D3" transform="translate(132,248)"/>
<path d="M0 0 C0.99 0.33 1.98 0.66 3 1 C4.1875 4.5625 4.1875 4.5625 5 8 C3.68 7.67 2.36 7.34 1 7 C0.67 4.69 0.34 2.38 0 0 Z " fill="#5AB2CD" transform="translate(128,240)"/>
<path d="M0 0 C0.33 0 0.66 0 1 0 C1 2.64 1 5.28 1 8 C0.34 8 -0.32 8 -1 8 C-1.33 8.99 -1.66 9.98 -2 11 C-3.13643966 7.59068103 -2.86747764 6.99664544 -1.5625 3.8125 C-1.13130859 2.73935547 -1.13130859 2.73935547 -0.69140625 1.64453125 C-0.46324219 1.10183594 -0.23507812 0.55914062 0 0 Z " fill="#82C2D8" transform="translate(341,232)"/>
<path d="M0 0 C1.9375 0.6875 1.9375 0.6875 2.9375 2.6875 C1.6175 2.3575 0.2975 2.0275 -1.0625 1.6875 C-1.3925 2.3475 -1.7225 3.0075 -2.0625 3.6875 C-3.7125 3.6875 -5.3625 3.6875 -7.0625 3.6875 C-3.08781646 -0.46785098 -3.08781646 -0.46785098 0 0 Z " fill="#9AE1F9" transform="translate(254.0625,192.3125)"/>
<path d="M0 0 C-1.44253657 3.36591866 -3.33264727 5.51047079 -6 8 C-5.62403791 5.21788056 -5.32681541 3.4120716 -3.5625 1.1875 C-2 0 -2 0 0 0 Z " fill="#79C2DA" transform="translate(267,403)"/>
<path d="M0 0 C0.99 0.33 1.98 0.66 3 1 C2.01 2.98 1.02 4.96 0 7 C-0.66 7 -1.32 7 -2 7 C-2.33 5.35 -2.66 3.7 -3 2 C-2.34 2 -1.68 2 -1 2 C-0.67 1.34 -0.34 0.68 0 0 Z " fill="#60BADC" transform="translate(340,240)"/>
<path d="M0 0 C0 0.66 0 1.32 0 2 C-3.41831915 4.5393228 -5.75776898 5.3636198 -10 5 C-3.63636364 0 -3.63636364 0 0 0 Z " fill="#5EBBE2" transform="translate(260,183)"/>
<path d="M0 0 C0.33 1.32 0.66 2.64 1 4 C-1.31 5.32 -3.62 6.64 -6 8 C-6.66 7.34 -7.32 6.68 -8 6 C-6.865625 5.566875 -5.73125 5.13375 -4.5625 4.6875 C-2.7990625 3.8521875 -2.7990625 3.8521875 -1 3 C-0.67 2.01 -0.34 1.02 0 0 Z " fill="#93DBF9" transform="translate(234,181)"/>
<path d="M0 0 C-0.33 0.99 -0.66 1.98 -1 3 C-3.06640625 3.73046875 -3.06640625 3.73046875 -5.5625 4.1875 C-6.38878906 4.34605469 -7.21507812 4.50460938 -8.06640625 4.66796875 C-9.02353516 4.83232422 -9.02353516 4.83232422 -10 5 C-4.03225806 0 -4.03225806 0 0 0 Z " fill="#53B9E0" transform="translate(226,182)"/>
<path d="M0 0 C3.0916909 2.52956528 3.90931332 5.22454612 5 9 C4.01 9 3.02 9 2 9 C0.50178941 5.62902617 0 3.79557881 0 0 Z " fill="#7FC0D5" transform="translate(350,130)"/>
<path d="M0 0 C2.475 0.99 2.475 0.99 5 2 C5 2.66 5 3.32 5 4 C6.32 4.66 7.64 5.32 9 6 C6.23723823 5.47731534 3.6739124 4.89130413 1 4 C0.3125 1.9375 0.3125 1.9375 0 0 Z " fill="#7BC0DA" transform="translate(303,80)"/>
<path d="M0 0 C0.92538169 3.70152678 1.08174162 4.63458162 0 8 C-1.32 8.33 -2.64 8.66 -4 9 C-2.68 6.03 -1.36 3.06 0 0 Z " fill="#7ABCD3" transform="translate(336,245)"/>
<path d="M0 0 C1.32 0.33 2.64 0.66 4 1 C4 2.65 4 4.3 4 6 C3.01 6.33 2.02 6.66 1 7 C0.67 4.69 0.34 2.38 0 0 Z " fill="#62BAD5" transform="translate(342,160)"/>
<path d="M0 0 C0.66 0 1.32 0 2 0 C3.25664978 2.90600261 4 4.79604584 4 8 C3.34 8 2.68 8 2 8 C0.23537317 4.91190305 0 3.76687864 0 0 Z " fill="#79BAD3" transform="translate(358,149)"/>
<path d="M0 0 C2.79872437 2.52788007 4.45773019 4.20411134 5 8 C2 7 2 7 0 4 C0 2.68 0 1.36 0 0 Z " fill="#7EC2DC" transform="translate(345,122)"/>
<path d="M0 0 C0.33 0 0.66 0 1 0 C1.125 2.375 1.125 2.375 1 5 C0.34 5.66 -0.32 6.32 -1 7 C-1.99 6.67 -2.98 6.34 -4 6 C-2.69593116 3.98079663 -1.36176581 1.98075027 0 0 Z " fill="#6FBFDD" transform="translate(128,114)"/>
<path d="M0 0 C0 0.99 0 1.98 0 3 C-2.97 2.67 -5.94 2.34 -9 2 C-9 1.67 -9 1.34 -9 1 C-5.846632 0.29925156 -3.27275026 0 0 0 Z " fill="#69C1DD" transform="translate(209,64)"/>
<path d="M0 0 C-1.29299694 2.88437779 -2.65941363 4.87219421 -5 7 C-5.33 5.35 -5.66 3.7 -6 2 C-2.25 0 -2.25 0 0 0 Z " fill="#74BEDB" transform="translate(249,426)"/>
<path d="M0 0 C1.32 0.33 2.64 0.66 4 1 C4 1.99 4 2.98 4 4 C4.66 4.33 5.32 4.66 6 5 C5.34 5.66 4.68 6.32 4 7 C2.02 3.535 2.02 3.535 0 0 Z " fill="#7AC2D8" transform="translate(157,341)"/>
<path d="M0 0 C0.99 0 1.98 0 3 0 C3.33 2.64 3.66 5.28 4 8 C1.84622436 5.37801226 0.59927826 3.35595828 0 0 Z " fill="#6CC2D6" transform="translate(119,274)"/>
<path d="M0 0 C0.66 0 1.32 0 2 0 C2 0.66 2 1.32 2 2 C2.66 2 3.32 2 4 2 C4 3.65 4 5.3 4 7 C3.34 7 2.68 7 2 7 C1.34 4.69 0.68 2.38 0 0 Z " fill="#6AB6D2" transform="translate(112,258)"/>
<path d="M0 0 C-0.33 0.99 -0.66 1.98 -1 3 C-4.0625 4.1875 -4.0625 4.1875 -7 5 C-7.66 4.34 -8.32 3.68 -9 3 C-2.25 0 -2.25 0 0 0 Z " fill="#5DBBE4" transform="translate(247,189)"/>
<path d="M0 0 C2.31 0.66 4.62 1.32 7 2 C6.01 2.495 6.01 2.495 5 3 C4.67 3.66 4.34 4.32 4 5 C2 3.625 2 3.625 0 2 C0 1.34 0 0.68 0 0 Z " fill="#63B8D4" transform="translate(296,100)"/>
<path d="" fill="#FFFFFF" transform="translate(0,0)"/>
<path d="" fill="#FFFFFF" transform="translate(0,0)"/>
<path d="" fill="#FFFFFF" transform="translate(0,0)"/>
<path d="" fill="#FFFFFF" transform="translate(0,0)"/>
<path d="" fill="#FFFFFF" transform="translate(0,0)"/>
<path d="" fill="#FFFFFF" transform="translate(0,0)"/>
<path d="" fill="#FFFFFF" transform="translate(0,0)"/>
<path d="" fill="#FFFFFF" transform="translate(0,0)"/>
<path d="" fill="#FFFFFF" transform="translate(0,0)"/>
<path d="" fill="#FFFFFF" transform="translate(0,0)"/>
<path d="" fill="#FFFFFF" transform="translate(0,0)"/>
<path d="" fill="#FFFFFF" transform="translate(0,0)"/>
<path d="" fill="#FFFFFF" transform="translate(0,0)"/>
<path d="" fill="#FFFFFF" transform="translate(0,0)"/>
<path d="" fill="#FFFFFF" transform="translate(0,0)"/>
<path d="" fill="#FFFFFF" transform="translate(0,0)"/>
<path d="" fill="#FFFFFF" transform="translate(0,0)"/>
<path d="" fill="#FFFFFF" transform="translate(0,0)"/>
<path d="" fill="#FFFFFF" transform="translate(0,0)"/>
<path d="" fill="#FFFFFF" transform="translate(0,0)"/>
<path d="" fill="#FFFFFF" transform="translate(0,0)"/>
<path d="" fill="#FFFFFF" transform="translate(0,0)"/>
<path d="" fill="#FFFFFF" transform="translate(0,0)"/>
<path d="" fill="#FFFFFF" transform="translate(0,0)"/>
<path d="" fill="#FFFFFF" transform="translate(0,0)"/>
<path d="" fill="#FFFFFF" transform="translate(0,0)"/>
<path d="" fill="#FFFFFF" transform="translate(0,0)"/>
<path d="" fill="#FFFFFF" transform="translate(0,0)"/>
<path d="" fill="#FFFFFF" transform="translate(0,0)"/>
<path d="" fill="#FFFFFF" transform="translate(0,0)"/>
<path d="" fill="#FFFFFF" transform="translate(0,0)"/>
<path d="" fill="#FFFFFF" transform="translate(0,0)"/>
<path d="" fill="#FFFFFF" transform="translate(0,0)"/>
<path d="" fill="#FFFFFF" transform="translate(0,0)"/>
<path d="" fill="#FFFFFF" transform="translate(0,0)"/>
<path d="" fill="#FFFFFF" transform="translate(0,0)"/>
<path d="" fill="#FFFFFF" transform="translate(0,0)"/>
<path d="" fill="#FFFFFF" transform="translate(0,0)"/>
<path d="" fill="#FFFFFF" transform="translate(0,0)"/>
<path d="" fill="#FFFFFF" transform="translate(0,0)"/>
<path d="" fill="#FFFFFF" transform="translate(0,0)"/>
<path d="" fill="#FFFFFF" transform="translate(0,0)"/>
<path d="" fill="#FFFFFF" transform="translate(0,0)"/>
<path d="" fill="#FFFFFF" transform="translate(0,0)"/>
<path d="" fill="#FFFFFF" transform="translate(0,0)"/>
<path d="" fill="#FFFFFF" transform="translate(0,0)"/>
<path d="" fill="#FFFFFF" transform="translate(0,0)"/>
<path d="" fill="#FFFFFF" transform="translate(0,0)"/>
<path d="" fill="#FFFFFF" transform="translate(0,0)"/>
<path d="" fill="#FFFFFF" transform="translate(0,0)"/>
<path d="" fill="#FFFFFF" transform="translate(0,0)"/>
<path d="" fill="#FFFFFF" transform="translate(0,0)"/>
<path d="" fill="#FFFFFF" transform="translate(0,0)"/>
<path d="" fill="#FFFFFF" transform="translate(0,0)"/>
<path d="" fill="#FFFFFF" transform="translate(0,0)"/>
<path d="" fill="#FFFFFF" transform="translate(0,0)"/>
<path d="" fill="#FFFFFF" transform="translate(0,0)"/>
<path d="" fill="#FFFFFF" transform="translate(0,0)"/>
<path d="" fill="#FFFFFF" transform="translate(0,0)"/>
<path d="" fill="#FFFFFF" transform="translate(0,0)"/>
<path d="" fill="#FFFFFF" transform="translate(0,0)"/>
<path d="" fill="#FFFFFF" transform="translate(0,0)"/>
<path d="" fill="#FFFFFF" transform="translate(0,0)"/>
<path d="" fill="#FFFFFF" transform="translate(0,0)"/>
<path d="" fill="#FFFFFF" transform="translate(0,0)"/>
<path d="" fill="#FFFFFF" transform="translate(0,0)"/>
<path d="" fill="#FFFFFF" transform="translate(0,0)"/>
<path d="" fill="#FFFFFF" transform="translate(0,0)"/>
<path d="" fill="#FFFFFF" transform="translate(0,0)"/>
<path d="" fill="#FFFFFF" transform="translate(0,0)"/>
<path d="" fill="#FFFFFF" transform="translate(0,0)"/>
<path d="" fill="#FFFFFF" transform="translate(0,0)"/>
</svg>
